<?xml version="1.0" ?><svg id="Layer_1" style="enable-background:new 0 0 512 512;" version="1.1" viewBox="0 0 512 512" xml:space="preserve" xmlns="http://www.w3.org/2000/svg" xmlns:xlink="http://www.w3.org/1999/xlink"><path d="M455.1,260c-3.1-7.3-10.9-11.5-18.6-9.9c-0.3,0.1-30.7,6-64.3,0.2c-34.3-6-58.9-21.9-73.5-47.3  c-0.3-0.9-0.8-1.8-1.4-2.5c-2.5-4.7-4.7-9.6-6.5-14.9c-1.8-10.6-13.3-65.1-59.3-96.9c-26.6-18.4-59.2-25.5-97.1-21.4v-6.7  c0-5.6-1.9-10.8-5-15c3.1-4.1,4.9-9.3,4.9-14.8C134.2,17.1,123,6,109.3,6S84.5,17.1,84.5,30.8c0,5.6,1.8,10.7,4.9,14.8  c-3.1,4.2-5,9.4-5,15v56c0,7.4,3.2,14,8.3,18.6V480h-8.5c-4.6,0-8.3,3.7-8.3,8.3c0,0.4,0,0.7,0.1,1h-12c-4.6,0-8.3,3.7-8.3,8.3  s3.7,8.3,8.3,8.3h105c4.6,0,8.3-3.7,8.3-8.3s-3.7-8.3-8.3-8.3h-10c0-0.3,0.1-0.7,0.1-1c0-4.3-3.3-7.9-7.5-8.3L449,280.2  C455.6,275.8,458.1,267.3,455.1,260z M325.7,270.5V323l-26.6,17.9V254C307.1,260.5,316,266,325.7,270.5z M258.8,195  c5.5,16.4,13.5,30.7,23.7,42.8V352l-26,17.5V184.4c1.2,4.6,1.6,7.4,1.6,7.5C258.2,193,258.5,194,258.8,195z M239.9,145.2v235.5  l-26.3,17.7V116.8C224.9,124.8,233.4,135,239.9,145.2z M170.6,100.5c9.4,1.2,18.2,3.6,26.3,7v302l-26.3,17.7V100.5z M154,99.4v338.9  l-28,18.8V135.2c5.1-4.6,8.3-11.2,8.3-18.6v-15.8C141.1,99.9,147.6,99.5,154,99.4z M342.4,311.8V277c7.9,2.6,16.3,4.7,25.2,6.2  c5,0.8,9.8,1.5,14.6,1.9L342.4,311.8z" id="XMLID_391_"/></svg>