<?xml version="1.0" ?><!DOCTYPE svg  PUBLIC '-//W3C//DTD SVG 1.1//EN'  'http://www.w3.org/Graphics/SVG/1.1/DTD/svg11.dtd'><svg enable-background="new 0 0 85 85" height="85px" id="Layer_1" version="1.1" viewBox="0 0 85 85" width="85px" xml:space="preserve" xmlns="http://www.w3.org/2000/svg" xmlns:xlink="http://www.w3.org/1999/xlink"><g><polyline fill="none" points="60.674,19.603    65.053,15.225 69.779,19.948 65.531,24.194  " stroke="#394553" stroke-linejoin="round" stroke-miterlimit="10" stroke-width="2.5"/><line fill="none" stroke="#394553" stroke-linejoin="round" stroke-miterlimit="10" stroke-width="2.5" x1="31.682" x2="45.117" y1="48.594" y2="35.159"/><polyline fill="none" points="24.252,65.471    19.95,69.774 15.225,65.052 19.706,60.57  " stroke="#394553" stroke-linejoin="round" stroke-miterlimit="10" stroke-width="2.5"/><line fill="none" stroke="#394553" stroke-linejoin="round" stroke-miterlimit="10" stroke-width="2.5" x1="49.842" x2="36.451" y1="39.883" y2="53.273"/><g><g><g><path d="M34.85,63.729      c1.555,1.556,1.555,4.101,0,5.657l-0.393,0.393c-1.556,1.556-4.102,1.556-5.657,0L15.221,56.2c-1.556-1.556-1.556-4.101,0-5.657      l0.394-0.393c1.556-1.556,4.102-1.556,5.657,0L34.85,63.729z" fill="none" stroke="#394553" stroke-miterlimit="10" stroke-width="2.5"/></g></g><g><g><path d="M62.398,45.642      c1.557,1.556,4.102,1.556,5.658,0.001l0.391-0.392c1.557-1.556,1.557-4.101,0-5.657l-23.039-23.04      c-1.555-1.556-4.101-1.556-5.657,0l-0.394,0.393c-1.555,1.556-1.556,4.101,0,5.657L62.398,45.642z" fill="none" stroke="#394553" stroke-miterlimit="10" stroke-width="2.5"/></g><g><path d="M63.729,34.849      c1.555,1.555,4.102,1.556,5.658,0l0.393-0.393c1.555-1.556,1.555-4.101,0-5.657L56.203,15.221c-1.557-1.556-4.102-1.556-5.658,0      l-0.395,0.394c-1.555,1.556-1.555,4.101,0,5.657L63.729,34.849z" fill="none" stroke="#394553" stroke-miterlimit="10" stroke-width="2.5"/></g></g></g><g><path d="M45.643,62.397c1.557,1.556,1.557,4.101,0,5.657    l-0.391,0.393c-1.557,1.556-4.103,1.556-5.658,0L16.553,45.406c-1.556-1.556-1.556-4.102,0-5.656l0.394-0.394    c1.556-1.556,4.101-1.556,5.657,0L45.643,62.397z" fill="none" stroke="#394553" stroke-miterlimit="10" stroke-width="2.5"/></g></g></svg>