<?xml version="1.0" ?><svg id="outline" viewBox="0 0 64 64" xmlns="http://www.w3.org/2000/svg"><title/><path d="M31,61a1,1,0,0,0,2,0,3,3,0,0,1,3-3,1,1,0,0,0,0-2,3,3,0,0,1-3-3,1,1,0,0,0-2,0,3,3,0,0,1-3,3,1,1,0,0,0,0,2A3,3,0,0,1,31,61Zm1-5a5,5,0,0,0,1,1,5,5,0,0,0-1,1,5,5,0,0,0-1-1A5,5,0,0,0,32,56Z"/><path d="M24,3a3,3,0,0,1-3,3,1,1,0,0,0,0,2,3,3,0,0,1,3,3,1,1,0,0,0,2,0,3,3,0,0,1,3-3,1,1,0,0,0,0-2,3,3,0,0,1-3-3,1,1,0,0,0-2,0Zm2,4a5,5,0,0,0-1,1,5,5,0,0,0-1-1,5,5,0,0,0,1-1A5,5,0,0,0,26,7Z"/><path d="M7,30a3,3,0,0,0,1-5.82V22.72l7-2.33v1.79a3,3,0,1,0,2,0V13.61L6,17.28v6.9A3,3,0,0,0,7,30Zm9-4a1,1,0,1,1,1-1A1,1,0,0,1,16,26Zm-1-9.61v1.89L8,20.61V18.72ZM7,26a1,1,0,1,1-1,1A1,1,0,0,1,7,26Z"/><path d="M54,42.66V36.48l-9,3.86v9.84a3,3,0,1,0,2,0V45.66Zm-7-1,5-2.14v1.82l-5,2.14ZM46,54a1,1,0,1,1,1-1A1,1,0,0,1,46,54Z"/><path d="M47,2A15,15,0,0,0,32,17c0,.52,0,1,.08,1.53L6.63,47l2,2-4,4,2.5,2.5-4.8,4.79,1.42,1.42,4.79-4.8,2.5,2.5,4-4,2,2,27.65-25.6A14.33,14.33,0,0,0,47,32,15,15,0,0,0,47,2ZM11,56.59,7.41,53,10,50.41,13.59,54ZM9.38,47,28.32,25.74l9.56,9.56L17,54.61Zm30-13-9.69-9.7L32.56,21a15.05,15.05,0,0,0,9.72,10.23ZM47,30A13,13,0,1,1,60,17,13,13,0,0,1,47,30Z"/><path d="M48.8,8.18a9.42,9.42,0,0,1,1.8.57l.8-1.83a10.63,10.63,0,0,0-2.2-.7Z"/><path d="M36,17h2a9,9,0,0,1,9-9V6A11,11,0,0,0,36,17Z"/></svg>