<?xml version="1.0" ?><svg id="Layer_1" style="enable-background:new 0 0 100 100;" version="1.1" viewBox="0 0 100 100" xml:space="preserve" xmlns="http://www.w3.org/2000/svg" xmlns:xlink="http://www.w3.org/1999/xlink"><path d="M81.802,20.05c-0.891-0.655-2.142-0.462-2.796,0.428s-0.462,2.142,0.428,2.796C87.929,29.513,93,39.504,93,50  s-5.071,20.487-13.566,26.727c-0.89,0.654-1.082,1.906-0.428,2.796c0.392,0.534,0.999,0.816,1.613,0.816  c0.411,0,0.826-0.126,1.183-0.388C91.318,72.96,97,61.764,97,50S91.318,27.04,81.802,20.05z"/><path d="M68.441,69.148c-0.89,0.654-1.082,1.906-0.428,2.796c0.392,0.534,0.999,0.816,1.613,0.816c0.411,0,0.826-0.126,1.183-0.388  C77.917,67.15,82.161,58.787,82.161,50s-4.244-17.15-11.352-22.372c-0.891-0.654-2.143-0.461-2.796,0.428  c-0.654,0.89-0.462,2.142,0.428,2.796c6.086,4.471,9.72,11.628,9.72,19.148S74.527,64.677,68.441,69.148z"/><path d="M57.453,61.574c-0.891,0.653-1.083,1.905-0.429,2.795c0.392,0.534,0.999,0.817,1.614,0.817c0.411,0,0.825-0.126,1.182-0.388  c4.698-3.447,7.502-8.979,7.502-14.799s-2.805-11.352-7.502-14.799c-0.89-0.654-2.143-0.462-2.795,0.429  c-0.654,0.891-0.461,2.142,0.429,2.795c3.675,2.697,5.869,7.023,5.869,11.574S61.128,58.877,57.453,61.574z"/><path d="M52.023,29.864c-0.655-0.346-1.449-0.301-2.062,0.117c-16.396,11.202-33.018,11.21-33.208,11.216  c-0.003,0-0.006,0.001-0.01,0.001c-0.003,0-0.005-0.001-0.008-0.001h-4.932C6.949,41.197,3,45.146,3,50s3.949,8.803,8.803,8.803  h4.932c0.003,0,0.006-0.001,0.009-0.001c0.004,0,0.007,0.001,0.011,0.001c0.138-0.015,16.74-0.033,33.206,11.216  c0.339,0.231,0.733,0.349,1.128,0.349c0.32,0,0.641-0.077,0.934-0.231c0.656-0.346,1.066-1.027,1.066-1.769V31.632  C53.089,30.891,52.679,30.21,52.023,29.864z M7,50c0-2.648,2.154-4.803,4.803-4.803h2.932v9.605h-2.932C9.154,54.803,7,52.648,7,50z   M49.089,64.701c-13.133-7.968-25.587-9.526-30.354-9.827v-9.747c4.768-0.301,17.223-1.86,30.354-9.827V64.701z"/></svg>