<?xml version="1.0" ?><svg viewBox="0 0 64 64" xmlns="http://www.w3.org/2000/svg"><g id="outline"><path d="M13,35a3,3,0,1,0,4-2.816V20.477L6,25.243v8.941a3,3,0,1,0,2,0V31.756l7-3.033v3.461A3,3,0,0,0,13,35ZM7,38a1,1,0,1,1,1-1A1,1,0,0,1,7,38Zm1-8.423v-3.02l7-3.034v3.021ZM16,34a1,1,0,1,1-1,1A1,1,0,0,1,16,34Z"/><path d="M54,37.659V31.483l-9,3.858v9.843a3,3,0,1,0,2,0V40.659Zm-7-1,5-2.142v1.824l-5,2.142ZM46,49a1,1,0,1,1,1-1A1,1,0,0,1,46,49Z"/><path d="M45,15a13,13,0,1,0-21.977,9.378L25,54.066A1,1,0,0,0,26,55h1v1a3,3,0,0,0,3,3h1v2a1,1,0,0,0,2,0V59h1a3,3,0,0,0,3-3V55h1a1,1,0,0,0,1-.934l1.979-29.688A13,13,0,0,0,45,15ZM21.191,13H42.809A10.989,10.989,0,0,1,43,15H21A10.989,10.989,0,0,1,21.191,13ZM32,4a11.01,11.01,0,0,1,10.236,7H21.764A11.01,11.01,0,0,1,32,4ZM21.2,17H42.8a11,11,0,0,1-3.274,6H24.47A11,11,0,0,1,21.2,17Zm3.873,8H38.931l-.267,4H25.336ZM35,56a1,1,0,0,1-1,1H30a1,1,0,0,1-1-1V55h6Zm2.064-3H26.936L25.469,31H38.531Z"/><path d="M31.439,20.83a.782.782,0,0,0,.181.09.636.636,0,0,0,.18.06A1.355,1.355,0,0,0,32,21a.99.99,0,1,0-.71-.29A1.7,1.7,0,0,0,31.439,20.83Z"/><path d="M36,21a.99.99,0,0,0,1-1,1,1,0,0,0-.08-.38,1.155,1.155,0,0,0-.21-.33,1.047,1.047,0,0,0-1.42,0,1.155,1.155,0,0,0-.21.33A.838.838,0,0,0,35,20a.99.99,0,0,0,1,1Z"/><path d="M27.08,20.38a.757.757,0,0,0,.09.18,1.576,1.576,0,0,0,.12.15,1.014,1.014,0,0,0,1.42,0l.12-.15a.8.8,0,0,0,.09-.18.6.6,0,0,0,.059-.18A1.234,1.234,0,0,0,29,20a1,1,0,0,0-.08-.38,1.155,1.155,0,0,0-.21-.33,1.047,1.047,0,0,0-1.42,0,1.155,1.155,0,0,0-.21.33A.838.838,0,0,0,27,20a1.355,1.355,0,0,0,.02.2A.636.636,0,0,0,27.08,20.38Z"/><path d="M29,43h6V33H29Zm2-8h2v6H31Z"/><path d="M31,49H30a1,1,0,0,0,0,2h1a1,1,0,0,0,0-2Z"/></g></svg>