<?xml version="1.0" ?><!DOCTYPE svg  PUBLIC '-//W3C//DTD SVG 1.1//EN'  'http://www.w3.org/Graphics/SVG/1.1/DTD/svg11.dtd'><svg enable-background="new 0 0 80 80" height="80px" id="Icons" version="1.1" viewBox="0 0 80 80" width="80px" xml:space="preserve" xmlns="http://www.w3.org/2000/svg" xmlns:xlink="http://www.w3.org/1999/xlink"><g><path d="M32,41.587C31.073,41.211,30.062,41,29,41c-4.418,0-8,3.582-8,8s3.582,8,8,8s8-3.582,8-8v-8.933l17-4.189v5.709   C53.073,41.211,52.062,41,51,41c-4.418,0-8,3.582-8,8s3.582,8,8,8s8-3.582,8-8V19.26L32,26V41.587z M29,52c-1.654,0-3-1.346-3-3   c0-1.654,1.346-3,3-3s3,1.346,3,3C32,50.654,30.654,52,29,52z M51,52c-1.654,0-3-1.346-3-3c0-1.654,1.346-3,3-3s3,1.346,3,3   C54,50.654,52.654,52,51,52z M37,29.907l17-4.236v5.057l-17,4.189V29.907z"/></g></svg>