<?xml version="1.0" ?><svg viewBox="0 0 512 512" xmlns="http://www.w3.org/2000/svg"><defs><style>.cls-1{fill:#76798e;}.cls-2{fill:#767c93;}.cls-3{opacity:0.3;}.cls-4{fill:#3f456b;}.cls-5{opacity:0.59;}</style></defs><title/><g id="Colors"><rect class="cls-1" height="139.29" width="43.93" x="231.43" y="355.71"/><path class="cls-2" d="M255,376.37c-73.24,0-132.86-59.64-132.86-132.94V36.63a21.43,21.43,0,1,1,42.86,0v206.8a89.47,89.47,0,1,0,178.93.21v-207a22,22,0,0,1,43.93,0v207C387.86,316.83,328.24,376.37,255,376.37Z"/><g class="cls-3"><path class="cls-4" d="M189.94,311.79C153.81,291.24,150,254.7,150,249.92V34a8.57,8.57,0,1,1,17.14,0V249.92C167.14,254.7,194.72,311.79,189.94,311.79Z"/></g><g class="cls-3"><path class="cls-4" d="M387.86,220.5V29.71a8.58,8.58,0,1,0-17.15,0V240.4s4.86,93.46-98.12,119c0,0-14.38-.1-14.38,16.94V493.93h17.15V374.53s78.76-11,105.58-88.59C380.94,285.94,387.86,254.25,387.86,220.5Z"/></g><g class="cls-5"><path class="cls-4" d="M72.64,253.68a5,5,0,0,1-4.25-2.36c-12.61-20.27-19.56-47.13-19.56-75.62s7-55.34,19.56-75.62a5,5,0,1,1,8.49,5.29c-24.12,38.78-24.12,101.89,0,140.67a5,5,0,0,1-4.24,7.64Z"/></g><g class="cls-5"><path class="cls-4" d="M46.17,296.25a5,5,0,0,1-4.25-2.36C22.24,262.24,11.4,220.27,11.4,175.71S22.24,89.17,41.92,57.52a5,5,0,1,1,8.49,5.29c-38.72,62.25-38.72,163.54,0,225.79a5,5,0,0,1-4.24,7.65Z"/></g><g class="cls-5"><path class="cls-4" d="M440.69,253.69a5,5,0,0,1-4.24-7.64c24.12-38.79,24.12-101.9,0-140.68a5,5,0,1,1,8.49-5.28c12.61,20.27,19.56,47.13,19.56,75.62s-6.95,55.34-19.56,75.62A5,5,0,0,1,440.69,253.69Z"/></g><g class="cls-5"><path class="cls-4" d="M467.16,296.25a5,5,0,0,1-4.24-7.65c38.72-62.25,38.72-163.54,0-225.79a5,5,0,1,1,8.49-5.29c19.68,31.65,30.52,73.62,30.52,118.19s-10.84,86.53-30.52,118.18A5,5,0,0,1,467.16,296.25Z"/></g></g><g id="Lines"><path class="cls-4" d="M275.19,500H231.92a5,5,0,0,1-5-5L227,378.64A138.23,138.23,0,0,1,117.14,243.43V36.63a26.43,26.43,0,1,1,52.86,0v206.8a84.47,84.47,0,1,0,168.93.22v-207a27,27,0,0,1,53.93,0v207A138.19,138.19,0,0,1,280.41,379.12L280.19,495A5,5,0,0,1,275.19,500Zm-38.27-10H270.2l.21-115.1a5,5,0,0,1,4.24-4.93A128.17,128.17,0,0,0,382.86,243.65v-207a17,17,0,0,0-33.93,0v207a94.57,94.57,0,0,1-94.47,94.45c-52.08,0-94.46-42.47-94.46-94.67V36.63a16.43,16.43,0,1,0-32.86,0v206.8A128.19,128.19,0,0,0,232.86,369.58a5,5,0,0,1,4.14,4.93Z"/></g></svg>