<?xml version="1.0" ?><!DOCTYPE svg  PUBLIC '-//W3C//DTD SVG 1.1//EN'  'http://www.w3.org/Graphics/SVG/1.1/DTD/svg11.dtd'><svg enable-background="new 0 0 128 128" height="128px" id="Layer_1" version="1.1" viewBox="0 0 128 128" width="128px" xml:space="preserve" xmlns="http://www.w3.org/2000/svg" xmlns:xlink="http://www.w3.org/1999/xlink"><g><path d="M114.879,14.316c2.395,1.355,3.57,6.016,8.203,6.016c3.084,0,4.918-3.005,4.918-5.675c0-3.385-2.02-9.715-9.309-12.765   c-12.803-5.359-24.119,0.98-25.68,15.043c-3.23-0.382-5.256-2.57-6.328-4.182C86.072,11.834,84.834,11,83.73,11H64H44.271   c-1.104,0-2.343,0.834-2.954,1.754c-1.071,1.612-3.098,3.8-6.328,4.182C33.428,2.873,22.112-3.466,9.308,1.893   C2.02,4.942,0,11.272,0,14.657c0,2.67,1.833,5.675,4.919,5.675c4.632,0,5.808-4.66,8.203-6.016c3.318-1.878,9.129-0.426,7.8,11.131   C19.593,37.004,4.518,49.032,4.518,87.041C4.518,119.816,38.193,128,64,128s59.482-8.184,59.482-40.959   c0-38.009-15.074-50.037-16.402-61.593C105.75,13.891,111.561,12.438,114.879,14.316z M86,25v67.523   c-1.471,0.482-2.998,0.872-4.57,1.178V25H86z M79.43,94.043c-1.502,0.229-3.031,0.396-4.572,0.518V25h4.572V94.043z M72.857,94.697   c-1.525,0.085-3.056,0.134-4.571,0.16V25h4.571V94.697z M66.286,25v69.881c-0.768,0.005-1.531,0.008-2.286,0.008   c-0.754,0-1.518-0.003-2.286-0.008V25H64H66.286z M59.714,94.857c-1.516-0.026-3.045-0.075-4.571-0.16V25h4.571V94.857z    M53.143,94.561c-1.541-0.121-3.07-0.289-4.572-0.518V25h4.572V94.561z M46.571,25v68.701c-1.572-0.306-3.101-0.695-4.571-1.178V25   H46.571z M27.243,75.861C23.561,55.763,33.291,41.834,34.939,25H40v66.795C33.702,89.216,28.825,84.496,27.243,75.861z M90,109   c0,1.104-0.895,2-2,2H40c-1.104,0-2-0.896-2-2v-2c0-1.104,0.896-2,2-2h48c1.105,0,2,0.896,2,2V109z M100.758,75.861   C99.176,84.496,94.299,89.216,88,91.795V25h5.061C94.709,41.834,104.439,55.763,100.758,75.861z"/></g></svg>