<?xml version="1.0" ?><!DOCTYPE svg  PUBLIC '-//W3C//DTD SVG 1.1//EN'  'http://www.w3.org/Graphics/SVG/1.1/DTD/svg11.dtd'><svg height="32px" style="fill-rule:evenodd;clip-rule:evenodd;stroke-linejoin:round;stroke-miterlimit:2;" version="1.1" width="32px" xml:space="preserve" xmlns="http://www.w3.org/2000/svg" xmlns:serif="http://www.serif.com/" xmlns:xlink="http://www.w3.org/1999/xlink"><g id="Icon"><path d="M6,4l0,4c-0,0.552 0.448,1 1,1c0.552,0 1,-0.448 1,-1l0,-4c-0,-0.552 -0.448,-1 -1,-1c-0.552,0 -1,0.448 -1,1Z"/><path d="M24,4l0,4c0,0.552 0.448,1 1,1c0.552,-0 1,-0.448 1,-1l0,-4c0,-0.552 -0.448,-1 -1,-1c-0.552,-0 -1,0.448 -1,1Z"/><path d="M3,2l0,8c-0,0.552 0.448,1 1,1c0.552,0 1,-0.448 1,-1l0,-8c-0,-0.552 -0.448,-1 -1,-1c-0.552,0 -1,0.448 -1,1Z"/><path d="M27,2l0,8c-0,0.552 0.448,1 1,1c0.552,0 1,-0.448 1,-1l0,-8c-0,-0.552 -0.448,-1 -1,-1c-0.552,0 -1,0.448 -1,1Z"/><path d="M13,31l6,0c0.552,0 1,-0.448 1,-1c0,-0.552 -0.448,-1 -1,-1l-6,0c-0.552,0 -1,0.448 -1,1c0,0.552 0.448,1 1,1Z"/><path d="M15,24l0,6c-0,0.552 0.448,1 1,1c0.552,0 1,-0.448 1,-1l0,-6c-0,-0.552 -0.448,-1 -1,-1c-0.552,0 -1,0.448 -1,1Z"/><path d="M22,16l-3.6,0c-0.773,-0 -1.4,-0.448 -1.4,-1c0,-0.552 0.627,-1 1.4,-1l3.6,0l0,-2l-3.6,0c-0.773,0 -1.4,-0.448 -1.4,-1c-0,-0.552 0.627,-1 1.4,-1l3.6,0l0,-2l-3.6,0c-0.773,-0 -1.4,-0.448 -1.4,-1c0,-0.552 0.627,-1 1.4,-1l3.6,0l0,-1.5c0,-1.932 -1.568,-3.5 -3.5,-3.5l-5,-0c-1.932,-0 -3.5,1.568 -3.5,3.5l0,1.514c0.065,-0.009 0.132,-0.014 0.2,-0.014l3.6,0c0.662,-0 1.2,0.448 1.2,1c0,0.552 -0.538,1 -1.2,1l-3.6,0c-0.068,-0 -0.135,-0.005 -0.2,-0.014l0,2.028c0.065,-0.009 0.132,-0.014 0.2,-0.014l3.6,0c0.662,0 1.2,0.448 1.2,1c-0,0.552 -0.538,1 -1.2,1l-3.6,0c-0.068,0 -0.135,-0.005 -0.2,-0.014l0,2.028c0.065,-0.009 0.132,-0.014 0.2,-0.014l3.6,-0c0.662,-0 1.2,0.448 1.2,1c0,0.552 -0.538,1 -1.2,1l-3.6,0c-0.068,-0 -0.135,-0.005 -0.2,-0.014l0,1.514c0,1.932 1.568,3.5 3.5,3.5c-0,-0 5,-0 5,-0c1.932,-0 3.5,-1.568 3.5,-3.5l0,-1.5Z"/><path d="M6,14l0,5.5c0,3.036 2.464,5.5 5.5,5.5l9,0c3.036,0 5.5,-2.464 5.5,-5.5c0,0 0,-5.5 0,-5.5c-0,-0.552 -0.448,-1 -1,-1c-0.552,0 -1,0.448 -1,1l0,5.5c0,1.932 -1.568,3.5 -3.5,3.5c0,0 -9,0 -9,0c-1.932,0 -3.5,-1.568 -3.5,-3.5c0,0 0,-5.5 0,-5.5c-0,-0.552 -0.448,-1 -1,-1c-0.552,0 -1,0.448 -1,1Z"/></g></svg>