<?xml version="1.0" ?><svg version="1.1" viewBox="0 0 24 24" xmlns="http://www.w3.org/2000/svg" xmlns:xlink="http://www.w3.org/1999/xlink"><g fill="#000"><path d="M1.25,3c0,-1.51878 1.23122,-2.75 2.75,-2.75h16c1.5188,0 2.75,1.23122 2.75,2.75v3.25h-4v-2.25c0,-0.41421 -0.3358,-0.75 -0.75,-0.75c-0.4142,0 -0.75,0.33579 -0.75,0.75v2.25h-1.5v-2.25c0,-0.41421 -0.3358,-0.75 -0.75,-0.75c-0.4142,0 -0.75,0.33579 -0.75,0.75v2.25h-1.5v-2.25c0,-0.41421 -0.3358,-0.75 -0.75,-0.75c-0.4142,0 -0.75,0.33579 -0.75,0.75v2.25h-1.5v-2.25c0,-0.41421 -0.33579,-0.75 -0.75,-0.75c-0.41421,0 -0.75,0.33579 -0.75,0.75v2.25h-1.5v-2.25c0,-0.41421 -0.33579,-0.75 -0.75,-0.75c-0.41421,0 -0.75,0.33579 -0.75,0.75v2.25h-4v-3.25Z"/><path d="M10.75,18c0,-0.6904 0.5596,-1.25 1.25,-1.25c0.6904,0 1.25,0.5596 1.25,1.25c0,0.6904 -0.5596,1.25 -1.25,1.25c-0.6904,0 -1.25,-0.5596 -1.25,-1.25Z"/><path d="M17.25,11.25v-3.5h-1.5v4.25c0,0.4142 -0.3358,0.75 -0.75,0.75c-0.4142,0 -0.75,-0.3358 -0.75,-0.75v-4.25h-1.5v5.25c0,0.4142 -0.3358,0.75 -0.75,0.75c-0.4142,0 -0.75,-0.3358 -0.75,-0.75v-5.25h-1.5v4.25c0,0.4142 -0.33579,0.75 -0.75,0.75c-0.41421,0 -0.75,-0.3358 -0.75,-0.75v-4.25h-1.5v3.5c0,0.4142 -0.33579,0.75 -0.75,0.75c-0.41421,0 -0.75,-0.3358 -0.75,-0.75v-3.5h-4v13.25c0,1.5188 1.23122,2.75 2.75,2.75h16c1.5188,0 2.75,-1.2312 2.75,-2.75v-13.25h-4v3.5c0,0.4142 -0.3358,0.75 -0.75,0.75c-0.4142,0 -0.75,-0.3358 -0.75,-0.75Zm-5.25,4c-1.5188,0 -2.75,1.2312 -2.75,2.75c0,1.5188 1.2312,2.75 2.75,2.75c1.5188,0 2.75,-1.2312 2.75,-2.75c0,-1.5188 -1.2312,-2.75 -2.75,-2.75Z" fill-rule="evenodd"/></g></svg>