<svg xmlns="http://www.w3.org/2000/svg" width="134" height="134" fill="none" viewBox="0 0 134 134">
  <circle cx="67" cy="67" r="67" fill="#000"/>
  <mask id="a" fill="#fff">
    <path d="M55 7h25v25a7 7 0 0 1-7 7H62a7 7 0 0 1-7-7V7Z"/>
  </mask>
  <path fill="#000" d="M55 7h25v25a7 7 0 0 1-7 7H62a7 7 0 0 1-7-7V7Z"/>
  <path fill="#fff" d="M55 7h25-25Zm27 25a9 9 0 0 1-9 9H62a9 9 0 0 1-9-9h4a5 5 0 0 0 5 5h11a5 5 0 0 0 5-5h4Zm-20 9a9 9 0 0 1-9-9V7h4v25a5 5 0 0 0 5 5v4ZM82 7v25a9 9 0 0 1-9 9v-4a5 5 0 0 0 5-5V7h4Z" mask="url(#a)"/>
  <mask id="b" fill="#fff">
    <path d="M55 125h25v-25a7 7 0 0 0-7-7H62a7 7 0 0 0-7 7v25Z"/>
  </mask>
  <path fill="#000" d="M55 125h25v-25a7 7 0 0 0-7-7H62a7 7 0 0 0-7 7v25Z"/>
  <path fill="#fff" d="M55 125h25-25Zm27-25a9 9 0 0 0-9-9H62a9 9 0 0 0-9 9h4a5 5 0 0 1 5-5h11a5 5 0 0 1 5 5h4Zm-20-9a9 9 0 0 0-9 9v25h4v-25a5 5 0 0 1 5-5v-4Zm20 34v-25a9 9 0 0 0-9-9v4a5 5 0 0 1 5 5v25h4Z" mask="url(#b)"/>
  <mask id="c" fill="#fff">
    <path d="m13.068 49.931 12.5-21.65 23.335 13.472a7 7 0 0 1 2.563 9.562l-5.5 9.527a7 7 0 0 1-9.563 2.562L13.068 49.93Z"/>
  </mask>
  <path fill="#000" d="m13.068 49.931 12.5-21.65 23.335 13.472a7 7 0 0 1 2.563 9.562l-5.5 9.527a7 7 0 0 1-9.563 2.562L13.068 49.93Z"/>
  <path fill="#fff" d="m13.068 49.931 12.5-21.65-12.5 21.65Zm36.835-9.91a9 9 0 0 1 3.295 12.294l-5.5 9.527a9 9 0 0 1-12.295 3.294l2-3.464a5 5 0 0 0 6.83-1.83l5.5-9.527a5 5 0 0 0-1.83-6.83l2-3.464Zm-2.205 21.82a9 9 0 0 1-12.295 3.295L12.068 51.663l2-3.464 23.335 13.473a5 5 0 0 0 6.83-1.83l3.465 2ZM26.568 26.55l23.335 13.47a9 9 0 0 1 3.295 12.294l-3.465-2a5 5 0 0 0-1.83-6.83L24.568 30.013l2-3.464Z" mask="url(#c)"/>
  <mask id="d" fill="#fff">
    <path d="m122.897 83.972-12.5 21.651-23.335-13.472a7 7 0 0 1-2.562-9.563l5.5-9.526a7 7 0 0 1 9.562-2.562l23.335 13.472Z"/>
  </mask>
  <path fill="#000" d="m122.897 83.972-12.5 21.651-23.335-13.472a7 7 0 0 1-2.562-9.563l5.5-9.526a7 7 0 0 1 9.562-2.562l23.335 13.472Z"/>
  <path fill="#fff" d="m122.897 83.972-12.5 21.651 12.5-21.65Zm-36.835 9.91a9 9 0 0 1-3.294-12.294l5.5-9.526a9 9 0 0 1 12.294-3.294l-2 3.464a5 5 0 0 0-6.83 1.83l-5.5 9.526a5 5 0 0 0 1.83 6.83l-2 3.465Zm2.206-21.82a9 9 0 0 1 12.294-3.294l23.335 13.472-2 3.465-23.335-13.473a5 5 0 0 0-6.83 1.83l-3.464-2Zm21.129 35.293L86.062 93.883a9 9 0 0 1-3.294-12.295l3.464 2a5 5 0 0 0 1.83 6.83l23.335 13.473-2 3.464Z" mask="url(#d)"/>
  <mask id="e" fill="#fff">
    <path d="M27.34 108.831 13 88.351l20.475-14.336a7 7 0 0 1 9.75 1.72l6.309 9.01a7 7 0 0 1-1.72 9.749L27.34 108.83Z"/>
  </mask>
  <path fill="#000" d="M27.34 108.831 13 88.351l20.475-14.336a7 7 0 0 1 9.75 1.72l6.309 9.01a7 7 0 0 1-1.72 9.749L27.34 108.83Z"/>
  <path fill="#fff" d="M27.34 108.831 13 88.351l14.34 20.48Zm4.988-36.454a9 9 0 0 1 12.534 2.21l6.31 9.01a9 9 0 0 1-2.21 12.535l-2.295-3.276a5 5 0 0 0 1.228-6.964l-6.31-9.01a5 5 0 0 0-6.963-1.229l-2.294-3.276Zm18.844 11.22a9 9 0 0 1-2.21 12.535L28.487 110.47l-2.295-3.277 20.475-14.336a5 5 0 0 0 1.228-6.964l3.277-2.294Zm-39.32 3.117 20.476-14.337a9 9 0 0 1 12.534 2.21l-3.276 2.294a5 5 0 0 0-6.964-1.228L14.147 89.99l-2.294-3.276Z" mask="url(#e)"/>
  <mask id="f" fill="#fff">
    <path d="m106.209 28 14.34 20.479-20.476 14.337a7 7 0 0 1-9.749-1.72l-6.309-9.01a7 7 0 0 1 1.719-9.75L106.209 28Z"/>
  </mask>
  <path fill="#000" d="m106.209 28 14.34 20.479-20.476 14.337a7 7 0 0 1-9.749-1.72l-6.309-9.01a7 7 0 0 1 1.719-9.75L106.209 28Z"/>
  <path fill="#fff" d="m106.209 28 14.34 20.479L106.209 28Zm-4.988 36.454a9 9 0 0 1-12.535-2.21l-6.31-9.01a9 9 0 0 1 2.21-12.535l2.295 3.276a5 5 0 0 0-1.228 6.964l6.31 9.01a5 5 0 0 0 6.963 1.228l2.295 3.277Zm-18.844-11.22a9 9 0 0 1 2.21-12.535l20.475-14.337 2.294 3.276-20.475 14.337a5 5 0 0 0-1.228 6.964l-3.276 2.294Zm39.319-3.117-20.475 14.337a9 9 0 0 1-12.535-2.21l3.277-2.294a5 5 0 0 0 6.963 1.227l20.475-14.337 2.295 3.277Z" mask="url(#f)"/>
</svg>
