<svg xmlns="http://www.w3.org/2000/svg" width="32" height="32" fill="none" viewBox="0 0 32 32">
  <path fill="#000" d="m12.516 23.397.495 1.976c.177.711.922 1.294 1.656 1.294H16c.733 0 1.479-.583 1.656-1.294l.495-1.976c.177-.71.9-1.128 1.604-.925l1.956.56c.705.201 1.584-.152 1.949-.788l.667-1.156c.365-.636.236-1.572-.292-2.083l-1.464-1.414a1.281 1.281 0 0 1 .001-1.854l1.461-1.414c.528-.51.659-1.446.294-2.082l-.668-1.156c-.367-.636-1.244-.989-1.948-.788l-1.956.56a1.284 1.284 0 0 1-1.606-.925l-.493-1.973c-.177-.71-.923-1.292-1.656-1.292h-1.333c-.734 0-1.479.582-1.656 1.293l-.494 1.973a1.285 1.285 0 0 1-1.605.927l-1.956-.56c-.705-.203-1.584.152-1.95.787l-.666 1.156c-.365.636-.236 1.572.293 2.082l1.462 1.412a1.288 1.288 0 0 1 0 1.855L6.63 19.007c-.527.51-.659 1.446-.292 2.082l.668 1.156c.365.636 1.244.99 1.949.788l1.956-.56a1.28 1.28 0 0 1 1.604.924ZM15.333 14a2.667 2.667 0 1 1 0 5.334 2.667 2.667 0 0 1 0-5.334Z"/>
</svg>
