<?xml version="1.0" ?><svg id="Outline" viewBox="0 0 512 512" xmlns="http://www.w3.org/2000/svg"><path d="M488,144H56a8,8,0,0,0-5.657,2.344l-3.882,3.882A103.316,103.316,0,0,0,16,223.765v64.47a103.32,103.32,0,0,0,30.461,73.54l3.883,3.882A8,8,0,0,0,56,368H488a8,8,0,0,0,8-8V152A8,8,0,0,0,488,144ZM304,272V256h80v16Zm-80-80v16H208V192Zm160,48H272V224H384Zm0-32H240V192H384ZM256,224v16H240V224Zm32,32v16H272V256Zm96-80H208V160H384Zm-192,0H176V160h16Zm-32,0H80V160h80Zm32,16v16H82.056A24.017,24.017,0,0,1,80,198.264V192Zm32,32v16H125.475c-.093-.06-.181-.126-.275-.185L99.894,224Zm32,32v16H143.945a39.92,39.92,0,0,0-4.072-16ZM144,288H288v16H144Zm160,0h16v16H304Zm32,0h48v16H336Zm64-128h80V304H400ZM32,223.765a87.421,87.421,0,0,1,25.775-62.226L59.314,160H64v38.264a39.773,39.773,0,0,0,18.8,33.921l33.92,21.2A23.862,23.862,0,0,1,128,273.736V304H59.314l-1.542-1.542A87.424,87.424,0,0,1,32,240.235v-16.47ZM59.314,352l-1.54-1.539a87.338,87.338,0,0,1-25.4-54.151,104.9,104.9,0,0,0,14.081,17.461l3.885,3.885A8,8,0,0,0,56,320H480v32Z"/><path d="M456,176H424a8,8,0,0,0-8,8v96a8,8,0,0,0,8,8h32a8,8,0,0,0,8-8V184A8,8,0,0,0,456,176Zm-8,96H432V192h16Z"/></svg>