<svg xmlns="http://www.w3.org/2000/svg" width="24" height="24" fill="currentColor" viewBox="0 0 24 24"><path fill="#231F20" d="M19.725 0H4.535c-.567 0-1.11.227-1.51.628A2.15 2.15 0 0 0 2.4 2.143v19.714c0 .568.226 1.113.626 1.515.4.401.942.627 1.508.628h15.191c.566 0 1.109-.227 1.509-.628.4-.402.625-.947.625-1.515V2.143a2.15 2.15 0 0 0-.625-1.515A2.132 2.132 0 0 0 19.725 0Zm1.28 21.857a1.28 1.28 0 0 1-1.28 1.286H4.535a1.28 1.28 0 0 1-.906-.377 1.29 1.29 0 0 1-.375-.909V2.143c0-.341.135-.668.375-.909a1.28 1.28 0 0 1 .905-.377h15.191c.34 0 .665.136.905.377s.376.568.376.909v19.714Z"/><path fill="#231F20" d="M12.13 14.137a4.111 4.111 0 0 0-2.908 1.212 4.145 4.145 0 0 0-1.207 2.92c.226 5.48 8.004 5.48 8.23 0a4.145 4.145 0 0 0-1.207-2.92 4.111 4.111 0 0 0-2.908-1.212Zm0 7.406a3.258 3.258 0 0 1-2.305-.96 3.285 3.285 0 0 1-.956-2.314c.164-4.338 6.359-4.337 6.522 0a3.285 3.285 0 0 1-.956 2.314c-.612.614-1.44.96-2.305.96Z"/><path fill="#231F20" d="M12.13 15.657c-3.437.11-3.436 5.114 0 5.223 3.437-.11 3.436-5.113 0-5.223Zm0 4.366c-.46-.005-.9-.192-1.225-.52a1.757 1.757 0 0 1 1.225-2.989c.46.005.9.191 1.225.52a1.758 1.758 0 0 1 0 2.47 1.743 1.743 0 0 1-1.225.519Z"/><path fill="#231F20" d="M19.975 3.272h-.779V2.06a.431.431 0 0 0-.263-.396.425.425 0 0 0-.164-.032h-1.58a.425.425 0 0 0-.427.428v1.212h-.49V2.06a.43.43 0 0 0-.428-.428h-1.58a.425.425 0 0 0-.427.428v1.212h-.49V2.06a.431.431 0 0 0-.264-.396.425.425 0 0 0-.163-.032h-1.58a.425.425 0 0 0-.427.428v1.212h-.49V2.06a.43.43 0 0 0-.427-.428h-1.58a.425.425 0 0 0-.428.428v1.212h-.49V2.06a.43.43 0 0 0-.427-.428H5.49a.425.425 0 0 0-.428.428v1.212h-.778a.425.425 0 0 0-.427.429v1.543a.43.43 0 0 0 .427.428h.778V9.56c.004.321.134.629.362.855a1.215 1.215 0 0 0 2.073-.855V5.672h.49v5.336c.004.322.134.63.362.856a1.215 1.215 0 0 0 2.072-.856V5.672h.49v6.518c.004.322.134.63.362.855a1.215 1.215 0 0 0 2.073-.855V5.672h.49v5.336a1.215 1.215 0 0 0 2.434 0V5.672h.49V9.56a1.225 1.225 0 0 0 .752 1.129 1.21 1.21 0 0 0 1.326-.265 1.222 1.222 0 0 0 .357-.864V5.672h.779a.425.425 0 0 0 .426-.428V3.7a.431.431 0 0 0-.263-.396.425.425 0 0 0-.163-.033ZM4.712 4.815V4.13h.351v.686h-.351ZM6.644 9.56a.366.366 0 0 1-.363.357.363.363 0 0 1-.364-.357V2.489h.727v7.07Zm.854-4.745V4.13h.49v.686h-.49Zm2.07 6.193a.366.366 0 0 1-.363.358.363.363 0 0 1-.363-.358V2.49h.727v8.52Zm.854-6.193V4.13h.49v.686h-.49Zm1.708 7.74a.363.363 0 0 1-.364-.365V2.49h.727v9.701a.366.366 0 0 1-.363.365Zm1.217-7.74V4.13h.49v.686h-.49Zm1.707 6.558a.363.363 0 0 1-.363-.365V2.49h.727v8.519a.366.366 0 0 1-.364.365Zm1.217-6.558V4.13h.49v.686h-.49Zm2.071 4.745a.366.366 0 0 1-.363.357.363.363 0 0 1-.363-.357V2.489h.726v7.07Zm1.206-4.745h-.352V4.13h.352v.686Z"/></svg>