<svg xmlns="http://www.w3.org/2000/svg" width="24" height="24" fill="currentColor" viewBox="0 0 24 24"><defs><clipPath id="instrument-tank-drum__a"><path fill="#fff" d="M0 0h24v24H0z"/></clipPath></defs><g clip-path="url(#instrument-tank-drum__a)"><path fill="#000" d="M24 12c0 6.627-5.373 12-12 12S0 18.627 0 12 5.373 0 12 0s12 5.373 12 12Z"/><path fill="#fff" d="M14.216 5.972v-4.18H13.5v4.18c0 .296-.24.537-.538.537h-1.737a.537.537 0 0 1-.537-.537v-4.18H9.97v4.18c0 .692.562 1.253 1.254 1.253h1.737c.693 0 1.254-.561 1.254-1.253Z"/><path fill="#fff" d="m9.986 17.988-.04 4.18.715.007.041-4.18a.537.537 0 0 1 .543-.532l1.737.017a.537.537 0 0 1 .532.543l-.04 4.179.716.007.04-4.18a1.254 1.254 0 0 0-1.241-1.265l-1.738-.017a1.254 1.254 0 0 0-1.265 1.241Z"/><path fill="#fff" d="M8.88 7.66 4.974 5.405l-.358.62L8.52 8.282a.537.537 0 0 1 .197.734l-.869 1.504a.537.537 0 0 1-.734.197L3.21 8.46l-.358.62 3.905 2.255c.6.346 1.367.141 1.713-.459l.869-1.504c.346-.6.14-1.367-.46-1.713Z"/><path fill="#fff" d="m15.472 16.282 3.905 2.256.359-.621-3.906-2.255a.537.537 0 0 1-.197-.734l.869-1.505a.537.537 0 0 1 .734-.196l3.906 2.255.358-.62-3.906-2.256a1.254 1.254 0 0 0-1.713.46l-.868 1.504c-.346.6-.14 1.366.459 1.712Z"/><path fill="#fff" d="M6.263 13.208 2.84 15.605l.41.587 3.424-2.397a.537.537 0 0 1 .748.132l.997 1.423a.537.537 0 0 1-.132.748l-3.423 2.397.41.587 3.424-2.397a1.254 1.254 0 0 0 .308-1.746l-.997-1.423a1.254 1.254 0 0 0-1.746-.308Z"/><path fill="#fff" d="M17.678 11.232 21.1 8.835l-.41-.587-3.424 2.397a.537.537 0 0 1-.748-.132l-.997-1.423a.537.537 0 0 1 .132-.749l3.423-2.397-.41-.586-3.424 2.397a1.254 1.254 0 0 0-.308 1.746l.997 1.423a1.254 1.254 0 0 0 1.746.308Z"/></g></svg>