<svg xmlns="http://www.w3.org/2000/svg" width="134" height="134" fill="currentColor" viewBox="0 0 134 134"><path fill="#000" d="M134 67c0 37.003-29.997 67-67 67S0 104.003 0 67 29.997 0 67 0s67 29.997 67 67Z"/><path fill="#fff" d="M79.373 33.342V10.005h-4v23.337a3 3 0 0 1-3 3h-9.7a3 3 0 0 1-3-3V10.005h-4v23.337a7 7 0 0 0 7 7h9.7a7 7 0 0 0 7-7Z"/><path fill="#fff" d="m55.753 100.435-.226 23.335 4 .039.226-23.335a3 3 0 0 1 3.029-2.971l9.7.094a3 3 0 0 1 2.97 3.029l-.226 23.335 4 .039.226-23.335a7 7 0 0 0-6.932-7.068l-9.7-.094a7 7 0 0 0-7.067 6.932Z"/><path fill="#fff" d="M49.578 42.77 27.772 30.18l-2 3.464 21.806 12.59a3 3 0 0 1 1.098 4.098l-4.85 8.4a3 3 0 0 1-4.098 1.098L17.922 47.24l-2 3.465 21.806 12.59a7 7 0 0 0 9.562-2.563l4.85-8.4a7 7 0 0 0-2.562-9.563Z"/><path fill="#fff" d="m86.384 90.91 21.806 12.591 2-3.464-21.806-12.59a3 3 0 0 1-1.098-4.099l4.85-8.4a3 3 0 0 1 4.098-1.098l21.806 12.59 2-3.464-21.806-12.59a7 7 0 0 0-9.562 2.562l-4.85 8.4a7 7 0 0 0 2.562 9.563Z"/><path fill="#fff" d="M34.97 73.745 15.856 87.128l2.294 3.276 19.113-13.382a3 3 0 0 1 4.178.736l5.563 7.946a3 3 0 0 1-.736 4.178l-19.113 13.383 2.295 3.277 19.112-13.383a7 7 0 0 0 1.72-9.75l-5.565-7.945a7 7 0 0 0-9.749-1.72Z"/><path fill="#fff" d="m98.701 62.71 19.113-13.383-2.294-3.276-19.113 13.383a3 3 0 0 1-4.178-.737l-5.564-7.946a3 3 0 0 1 .737-4.178l19.112-13.383-2.294-3.277-19.112 13.383a7 7 0 0 0-1.72 9.75l5.564 7.945a7 7 0 0 0 9.75 1.72Z"/></svg>