<?xml version="1.0" ?><svg id="Line" viewBox="0 0 64 64" xmlns="http://www.w3.org/2000/svg"><defs><style>.cls-1{fill:#231f20;}</style></defs><title/><path class="cls-1" d="M49.7959,4H14.2041a5.00589,5.00589,0,0,0-5,5V55a5.00589,5.00589,0,0,0,5,5H49.7959a5.00589,5.00589,0,0,0,5-5V9A5.00589,5.00589,0,0,0,49.7959,4Zm3,51a3.00328,3.00328,0,0,1-3,3H14.2041a3.00328,3.00328,0,0,1-3-3V9a3.00328,3.00328,0,0,1,3-3H49.7959a3.00328,3.00328,0,0,1,3,3Z"/><path class="cls-1" d="M32,36.98633A9.65178,9.65178,0,0,0,22.35938,46.627c.53,12.78888,18.75323,12.78515,19.28126-.00007A9.65179,9.65179,0,0,0,32,36.98633Zm0,17.28076A7.64907,7.64907,0,0,1,24.35938,46.627c.38423-10.1223,14.89854-10.11956,15.28126.0001A7.64907,7.64907,0,0,1,32,54.26709Z"/><path class="cls-1" d="M32,40.53369c-8.05167.25614-8.05028,11.931.00013,12.186C40.05217,52.46347,40.04978,40.78863,32,40.53369Zm0,10.186a4.09319,4.09319,0,0,1,.00009-8.186A4.09319,4.09319,0,0,1,32,50.71973Z"/><path class="cls-1" d="M50.37988,11.63525H48.55566V8.80762a.99973.99973,0,0,0-1-1H43.85254a.99973.99973,0,0,0-1,1v2.82763H41.70313V8.80762a.99974.99974,0,0,0-1-1H37a.99974.99974,0,0,0-1,1v2.82763H34.85156V8.80762a.99973.99973,0,0,0-1-1H30.14844a.99973.99973,0,0,0-1,1v2.82763H28V8.80762a.99974.99974,0,0,0-1-1H23.29688a.99973.99973,0,0,0-1,1v2.82763H21.14746V8.80762a.99973.99973,0,0,0-1-1H16.44434a.99973.99973,0,0,0-1,1v2.82763H13.62012a.99974.99974,0,0,0-1,1v3.6001a.99973.99973,0,0,0,1,1h1.82422v9.07031a2.85173,2.85173,0,0,0,5.70312-.00008V17.23535h1.14942V29.686A2.85174,2.85174,0,0,0,28,29.686V17.23535h1.14844v15.2085a2.85175,2.85175,0,0,0,5.70312-.00009V17.23535H36V29.686a2.85175,2.85175,0,0,0,5.70312-.0001V17.23535h1.14941v9.07031a2.85156,2.85156,0,1,0,5.70312,0V17.23535h1.82422a.99973.99973,0,0,0,1-1v-3.6001A.99974.99974,0,0,0,50.37988,11.63525Zm-35.75976,3.6001v-1.6001h.82422v1.6001Zm4.52734,11.07031a.85173.85173,0,0,1-1.70312,0V9.80762h1.70312Zm2-11.07031v-1.6001h1.14942v1.6001ZM26,29.686a.85174.85174,0,0,1-1.70312-.00007c-.00014-2.70347.00013-14.62463,0-17.06524V9.80762H26Zm2-14.45069v-1.6001h1.14844v1.6001Zm4,18.06006a.8523.8523,0,0,1-.85156-.85156c-.00067-.00787.00048-16.21012,0-16.21813.00121-1.58395-.00087-4.84928,0-6.41809h1.70312c.0005,1.57553-.00039,4.847,0,6.43745V32.44385A.8523.8523,0,0,1,32,33.29541Zm2.85156-18.06006v-1.6001H36v1.6001Zm4,15.30225A.85231.85231,0,0,1,38,29.686V9.80762h1.70313v2.81311c-.00015,2.37508.00009,14.43573,0,17.0653A.8523.8523,0,0,1,38.85156,30.5376Zm2.85157-15.30225v-1.6001h1.14941v1.6001Zm4.85253,11.07031a.85173.85173,0,0,1-1.70312,0V9.80762h1.70312Zm2.82422-11.07031h-.82422v-1.6001h.82422Z"/></svg>