<svg xmlns="http://www.w3.org/2000/svg" width="26" height="26" fill="currentColor" viewBox="0 0 26 26"><mask id="live-helper__a" width="26" height="26" x="0" y="0" fill="#000" maskUnits="userSpaceOnUse"><path fill="#fff" d="M0 0h26v26H0z"/><path d="M16.692 1.582a12 12 0 1 0-7.384 22.836 12 12 0 0 0 7.384-22.836Zm2.522 12.845a6.349 6.349 0 0 1-4.75 4.75c-.951.22-1.94.22-2.89 0a6.35 6.35 0 0 1-4.75-4.75c-.22-.951-.22-1.94 0-2.89a6.35 6.35 0 0 1 4.75-4.75c.95-.22 1.939-.22 2.89 0a6.35 6.35 0 0 1 4.746 7.643l.004-.003Z"/><path d="M9.339 1.582 11.57 6.79a6.35 6.35 0 0 0-4.75 4.75L1.612 9.308A12 12 0 0 1 9.34 1.582Z"/><path d="M24.418 16.661a12 12 0 0 1-7.726 7.727L14.46 19.18a6.35 6.35 0 0 0 4.75-4.75l5.208 2.231Z"/><path d="M8.516 17.485a6.32 6.32 0 0 0 3.054 1.695L9.34 24.388a12 12 0 0 1-7.727-7.727L6.82 14.43a6.32 6.32 0 0 0 1.696 3.055Z"/><path d="M21.485 4.515a11.925 11.925 0 0 1 2.933 4.793L19.21 11.54a6.35 6.35 0 0 0-4.75-4.75l2.232-5.208a11.925 11.925 0 0 1 4.793 2.933Z"/></mask><path fill="#fff" d="M16.692 1.582a12 12 0 1 0-7.384 22.836 12 12 0 0 0 7.384-22.836Zm2.522 12.845a6.349 6.349 0 0 1-4.75 4.75c-.951.22-1.94.22-2.89 0a6.35 6.35 0 0 1-4.75-4.75c-.22-.951-.22-1.94 0-2.89a6.35 6.35 0 0 1 4.75-4.75c.95-.22 1.939-.22 2.89 0a6.35 6.35 0 0 1 4.746 7.643l.004-.003Z"/><path fill="#000" d="M9.339 1.582 11.57 6.79a6.35 6.35 0 0 0-4.75 4.75L1.612 9.308A12 12 0 0 1 9.34 1.582Z"/><path fill="#000" d="M24.418 16.661a12 12 0 0 1-7.726 7.727L14.46 19.18a6.35 6.35 0 0 0 4.75-4.75l5.208 2.231Z"/><path fill="#000" d="M8.516 17.485a6.32 6.32 0 0 0 3.054 1.695L9.34 24.388a12 12 0 0 1-7.727-7.727L6.82 14.43a6.32 6.32 0 0 0 1.696 3.055Z"/><path fill="#000" d="M21.485 4.515a11.925 11.925 0 0 1 2.933 4.793L19.21 11.54a6.35 6.35 0 0 0-4.75-4.75l2.232-5.208a11.925 11.925 0 0 1 4.793 2.933Z"/><path fill="#000" d="m19.214 14.427.487.113.395-1.702-1.236 1.235.354.354Zm-4.75 4.75.113.487-.113-.487Zm-2.89 0-.114.487.113-.487Zm-4.75-4.75-.488.113.488-.113Zm0-2.89-.488-.114.488.113Zm4.75-4.75-.114-.488.113.487Zm2.89 0 .113-.488-.113.487Zm4.75 4.75.487-.113-.487.112Zm-.004 2.893-.487-.114v.001l.487.113ZM9.34 1.582l.46-.197-.18-.419-.434.14.154.476ZM11.57 6.79l.113.487.582-.135-.235-.55-.46.198Zm-4.75 4.75-.197.46.55.234.134-.581-.487-.113ZM1.612 9.308l-.475-.154-.14.434.419.18.196-.46Zm22.806 7.353.476.154.14-.434-.419-.18-.197.46Zm-7.726 7.727-.46.196.18.42.434-.14-.154-.476ZM14.46 19.18l-.113-.487-.581.135.235.549.46-.197Zm-5.944-1.695.354-.354h-.001l-.353.354Zm3.054 1.695.46.197.235-.55-.583-.134-.112.487ZM9.34 24.388l-.154.475.434.14.18-.419-.46-.196ZM1.612 16.66l-.196-.46-.42.18.14.434.476-.154ZM6.82 14.43l.487-.112-.134-.583-.55.235.197.46Zm17.598-5.122.197.46.419-.18-.14-.433-.476.153ZM19.21 11.54l-.487.113.135.581.55-.235-.198-.46Zm-4.75-4.75L14 6.593l-.234.549.581.135.114-.487Zm2.386-5.684a12.5 12.5 0 0 0-8.87.448l.402.916a11.5 11.5 0 0 1 8.16-.412l.308-.952Zm-8.87.448a12.5 12.5 0 0 0-6.333 6.225l.908.418A11.5 11.5 0 0 1 8.378 2.47l-.402-.916ZM1.643 7.779a12.5 12.5 0 0 0-.601 8.86l.956-.29a11.5 11.5 0 0 1 .553-8.152l-.908-.418Zm-.601 8.86a12.5 12.5 0 0 0 5.434 7.024l.522-.853a11.5 11.5 0 0 1-5-6.462l-.956.291Zm5.434 7.024a12.5 12.5 0 0 0 8.728 1.641l-.176-.984a11.5 11.5 0 0 1-8.03-1.51l-.522.853Zm8.728 1.641a12.5 12.5 0 0 0 7.615-4.569l-.785-.619a11.5 11.5 0 0 1-7.006 4.204l.176.984Zm7.615-4.569a12.5 12.5 0 0 0 2.66-8.473l-1 .059a11.5 11.5 0 0 1-2.445 7.795l.785.62Zm2.66-8.473a12.5 12.5 0 0 0-3.64-8.1l-.707.706a11.5 11.5 0 0 1 3.348 7.453l.998-.06Zm-3.64-8.101a12.537 12.537 0 0 0-4.993-3.055l-.308.952a11.537 11.537 0 0 1 4.594 2.81l.707-.707Zm-3.112 10.153a5.85 5.85 0 0 1-1.562 2.814l.707.707A6.85 6.85 0 0 0 19.7 14.54l-.974-.226Zm-1.562 2.814a5.85 5.85 0 0 1-2.814 1.561l.226.975a6.849 6.849 0 0 0 3.295-1.83l-.707-.706Zm-2.814 1.561a5.903 5.903 0 0 1-2.665 0l-.226.975a6.9 6.9 0 0 0 3.117 0l-.226-.975Zm-2.665 0a5.85 5.85 0 0 1-2.814-1.561l-.707.707a6.849 6.849 0 0 0 3.295 1.829l.226-.975Zm-2.814-1.561a5.85 5.85 0 0 1-1.561-2.814l-.975.226a6.85 6.85 0 0 0 1.83 3.295l.706-.707Zm-1.561-2.814a5.902 5.902 0 0 1 0-2.665l-.975-.226a6.902 6.902 0 0 0 0 3.117l.975-.226Zm0-2.665a5.85 5.85 0 0 1 1.561-2.814l-.707-.707a6.85 6.85 0 0 0-1.829 3.295l.975.226Zm1.561-2.814a5.85 5.85 0 0 1 2.814-1.561l-.226-.975a6.85 6.85 0 0 0-3.295 1.83l.707.706Zm2.814-1.561a5.902 5.902 0 0 1 2.665 0l.226-.975a6.902 6.902 0 0 0-3.117 0l.226.975Zm2.665 0a5.85 5.85 0 0 1 2.814 1.561l.707-.707A6.85 6.85 0 0 0 14.577 6.3l-.226.975Zm2.814 1.561a5.85 5.85 0 0 1 1.562 2.814l.974-.226a6.85 6.85 0 0 0-1.83-3.295l-.706.707Zm1.561 2.814c.203.878.202 1.79-.003 2.668l.974.227c.24-1.026.24-2.094.004-3.12l-.975.225Zm.838 3.135.003-.004-.707-.707-.003.003.707.708ZM8.879 1.779l2.232 5.208.919-.394-2.232-5.208-.919.394Zm2.578 4.524a6.85 6.85 0 0 0-3.295 1.829l.707.707a5.85 5.85 0 0 1 2.814-1.562l-.226-.974ZM8.162 8.132a6.85 6.85 0 0 0-1.829 3.295l.974.226A5.85 5.85 0 0 1 8.87 8.839l-.707-.707ZM7.017 11.08 1.81 8.849l-.393.919 5.207 2.231.394-.919ZM2.088 9.462a11.5 11.5 0 0 1 2.81-4.594l-.706-.707a12.5 12.5 0 0 0-3.055 4.993l.951.308Zm2.81-4.594a11.5 11.5 0 0 1 4.595-2.81l-.308-.952a12.5 12.5 0 0 0-4.993 3.055l.707.707Zm19.044 11.64a11.5 11.5 0 0 1-2.81 4.593l.707.707c1.4-1.399 2.446-3.11 3.055-4.993l-.952-.308Zm-2.81 4.593a11.5 11.5 0 0 1-4.594 2.81l.308.952a12.5 12.5 0 0 0 4.993-3.055l-.707-.707Zm-3.98 3.09-2.232-5.208-.92.394 2.232 5.207.92-.393Zm-2.579-4.524a6.849 6.849 0 0 0 3.296-1.829l-.708-.707a5.85 5.85 0 0 1-2.814 1.562l.226.974Zm3.296-1.829a6.85 6.85 0 0 0 1.828-3.295l-.974-.226a5.85 5.85 0 0 1-1.562 2.814l.707.707Zm1.144-2.948 5.208 2.23.394-.918-5.208-2.232-.394.92ZM8.162 17.838a6.82 6.82 0 0 0 3.296 1.83l.224-.975A5.821 5.821 0 0 1 8.87 17.13l-.708.707Zm2.948 1.145L8.88 24.19l.918.393 2.232-5.207-.92-.394Zm-1.617 4.929a11.5 11.5 0 0 1-4.594-2.81l-.707.706a12.5 12.5 0 0 0 4.993 3.055l.308-.951Zm-4.594-2.81a11.5 11.5 0 0 1-2.81-4.595l-.952.308a12.5 12.5 0 0 0 3.055 4.993l.707-.707Zm-3.09-3.981 5.208-2.231-.394-.92-5.207 2.232.393.919Zm4.524-2.579a6.82 6.82 0 0 0 1.83 3.296l.706-.707a5.82 5.82 0 0 1-1.562-2.813l-.974.224Zm14.8-9.673a11.425 11.425 0 0 1 2.81 4.592l.951-.306a12.426 12.426 0 0 0-3.056-4.994l-.706.708Zm3.088 3.98-5.208 2.231.394.92 5.208-2.232-.394-.92Zm-4.524 2.578a6.85 6.85 0 0 0-1.828-3.295l-.708.707a5.85 5.85 0 0 1 1.562 2.814l.974-.226ZM17.87 8.132a6.85 6.85 0 0 0-3.296-1.83l-.226.975a5.85 5.85 0 0 1 2.814 1.562l.707-.707ZM14.92 6.987l2.231-5.208-.919-.394-2.231 5.208.92.394Zm1.619-4.929a11.425 11.425 0 0 1 4.592 2.81l.708-.706a12.425 12.425 0 0 0-4.994-3.056l-.306.952Z" mask="url(#live-helper__a)"/></svg>