<?xml version="1.0" encoding="utf-8"?>
<!-- Generator: Adobe Illustrator 26.1.0, SVG Export Plug-In . SVG Version: 6.00 Build 0)  -->
<svg version="1.1" id="Layer_1" xmlns="http://www.w3.org/2000/svg" xmlns:xlink="http://www.w3.org/1999/xlink" x="0px" y="0px"
	 viewBox="0 0 24 24" style="enable-background:new 0 0 24 24;" xml:space="preserve">
<path d="M14.3,11.6c-0.6,0-1.3,0.2-2,0.5c-1.8,0.9-2.8,2.8-2.1,4.2c0.5,0.9,1.5,1.4,2.6,1.4c0.6,0,1.3-0.2,2-0.5
	c1.8-0.9,2.8-2.8,2.1-4.2C16.4,12.1,15.4,11.6,14.3,11.6L14.3,11.6z M16.4,2.2c-0.4,0-0.7,0.3-0.7,0.7v9c0.5,0.2,0.9,0.6,1.2,1.1
	c0.2,0.3,0.2,0.7,0.2,1h0V2.9C17.1,2.5,16.8,2.2,16.4,2.2z M22.8,9.9c-0.5-1.6-1.6-2.1-3-2.7c-1.2-0.6-2.1-1.1-2.6-1.8V2.9
	c0-0.1,0-0.1,0-0.2c0.7,1.5,0.6,1.5,2.1,2.8c0.7,0.6,1.4,1.1,2.3,1.7C22.4,7.8,22.8,8.9,22.8,9.9z M5.5,12.5L5.5,12.5
	c0.8,0,1.5,0.3,1.7,0.9c0.5,0.9-0.3,2.3-1.6,2.9c-0.5,0.3-1.1,0.4-1.6,0.4c-0.8,0-1.5-0.3-1.7-0.9c-0.5-0.9,0.3-2.3,1.6-2.9
	C4.5,12.7,5,12.5,5.5,12.5 M5.5,11.6c-0.6,0-1.3,0.2-2,0.5c-1.8,0.9-2.8,2.8-2.1,4.2c0.5,0.9,1.5,1.4,2.6,1.4c0.6,0,1.3-0.2,2-0.5
	c1.8-0.9,2.8-2.8,2.1-4.2C7.7,12.1,6.7,11.6,5.5,11.6L5.5,11.6z M7.7,2.2C7.3,2.2,7,2.5,7,2.9v9c0.5,0.2,0.9,0.6,1.2,1.1
	c0.2,0.3,0.2,0.7,0.2,1h0V2.9C8.4,2.5,8.1,2.2,7.7,2.2z M1.3,19C6.2,21.4,12,21.6,17,19.4C12.6,22.8,5.5,22.5,1.3,19z"/>
</svg>
