<?xml version="1.0" encoding="utf-8"?>
<!-- Generator: Adobe Illustrator 26.1.0, SVG Export Plug-In . SVG Version: 6.00 Build 0)  -->
<svg version="1.1" id="Layer_1" xmlns="http://www.w3.org/2000/svg" xmlns:xlink="http://www.w3.org/1999/xlink" x="0px" y="0px"
	 viewBox="0 0 24 24" style="enable-background:new 0 0 24 24;" xml:space="preserve">
<path d="M13.5,14.4c-0.4,4.8-10,4.8-10.4,0C3.5,9.6,13.1,9.6,13.5,14.4L13.5,14.4z M12.2,14.4c-0.3-2.6-7.2-2.6-7.6,0
	C5,16.9,11.8,16.9,12.2,14.4L12.2,14.4z M18,12.1c-0.6,0-1.3,0.2-2,0.5c-1.8,0.9-2.8,2.8-2.1,4.2c0.5,0.9,1.5,1.4,2.6,1.4
	c0.6,0,1.3-0.2,2-0.5c1.8-0.9,2.8-2.8,2.1-4.2C20.2,12.6,19.2,12.1,18,12.1L18,12.1z M20.2,2.7c-0.4,0-0.7,0.3-0.7,0.7v9
	c0.5,0.2,0.9,0.6,1.2,1.1c0.2,0.3,0.2,0.7,0.2,1h0V3.4C20.9,3,20.6,2.7,20.2,2.7z M4.5,18.5c4.9,2.4,10.7,2.6,15.7,0.4
	C15.7,22.3,8.6,22,4.5,18.5z"/>
</svg>
