<?xml version="1.0" encoding="utf-8"?>
<!-- Generator: Adobe Illustrator 26.1.0, SVG Export Plug-In . SVG Version: 6.00 Build 0)  -->
<svg version="1.1" id="Layer_1" xmlns="http://www.w3.org/2000/svg" xmlns:xlink="http://www.w3.org/1999/xlink" x="0px" y="0px"
	 viewBox="0 0 24 24" style="enable-background:new 0 0 24 24;" xml:space="preserve">
<path d="M10.6,14.4c-0.4,4.8-10,4.8-10.4,0C0.6,9.7,10.2,9.7,10.6,14.4L10.6,14.4z M9.3,14.4c-0.3-2.6-7.2-2.6-7.6,0
	C2.1,16.9,8.9,17,9.3,14.4L9.3,14.4z M15.3,11.9c-0.6,0-1.3,0.2-2,0.5c-1.8,0.9-2.8,2.8-2.1,4.2c0.5,0.9,1.5,1.4,2.6,1.4
	c0.6,0,1.3-0.2,2-0.5c1.8-0.9,2.8-2.8,2.1-4.2C17.5,12.4,16.5,11.9,15.3,11.9L15.3,11.9z M17.4,2.5c-0.4,0-0.7,0.3-0.7,0.7v9
	c0.5,0.2,0.9,0.6,1.2,1.1c0.2,0.3,0.2,0.7,0.2,1h0V3.2C18.2,2.8,17.8,2.5,17.4,2.5z M23.8,10.3c-0.5-1.6-1.6-2.1-3-2.7
	c-1.2-0.6-2.1-1.1-2.6-1.8V3.2c0-0.1,0-0.1,0-0.2c0.7,1.5,0.6,1.5,2.1,2.8c0.7,0.6,1.4,1.1,2.3,1.7C23.4,8.1,23.8,9.3,23.8,10.3z
	 M1.2,18.7c4.9,2.4,10.7,2.6,15.7,0.4C12.5,22.5,5.4,22.2,1.2,18.7z"/>
</svg>
