<?xml version="1.0" encoding="utf-8"?>
<!-- Generator: Adobe Illustrator 26.1.0, SVG Export Plug-In . SVG Version: 6.00 Build 0)  -->
<svg version="1.1" id="Layer_1" xmlns="http://www.w3.org/2000/svg" xmlns:xlink="http://www.w3.org/1999/xlink" x="0px" y="0px"
	 viewBox="0 0 24 24" style="enable-background:new 0 0 24 24;" xml:space="preserve">
<path d="M9.9,13.6c-0.6,0-1.3,0.2-2,0.5c-1.8,0.9-2.8,2.8-2.1,4.2c0.5,0.9,1.5,1.4,2.6,1.4c0.6,0,1.3-0.2,2-0.5
	c1.8-0.9,2.8-2.8,2.1-4.2C12.1,14.1,11.1,13.6,9.9,13.6L9.9,13.6z M12,4.3c-0.4,0-0.7,0.3-0.7,0.7v9c0.5,0.2,0.9,0.6,1.2,1.1
	c0.2,0.3,0.2,0.7,0.2,1h0V5C12.8,4.6,12.4,4.3,12,4.3z M18.4,12c-0.5-1.6-1.6-2.1-3-2.7c-1.2-0.6-2.1-1.1-2.6-1.8V5
	c0-0.1,0-0.1,0-0.2c0.7,1.5,0.6,1.5,2.1,2.8c0.7,0.6,1.4,1.1,2.3,1.7C18.1,9.9,18.4,11,18.4,12z"/>
</svg>
