<?xml version="1.0" encoding="utf-8"?>
<!-- Generator: Adobe Illustrator 26.1.0, SVG Export Plug-In . SVG Version: 6.00 Build 0)  -->
<svg version="1.1" id="Layer_1" xmlns="http://www.w3.org/2000/svg" xmlns:xlink="http://www.w3.org/1999/xlink" x="0px" y="0px"
	 viewBox="0 0 24 24" style="enable-background:new 0 0 24 24;" xml:space="preserve">
<path d="M12.7,13.6c-0.6,0-1.3,0.2-2,0.5C8.9,15,8,16.9,8.7,18.3c0.5,0.9,1.5,1.4,2.6,1.4c0.6,0,1.3-0.2,2-0.5
	c1.8-0.9,2.8-2.8,2.1-4.2C14.9,14.1,13.9,13.6,12.7,13.6L12.7,13.6z M14.9,4.3c-0.4,0-0.7,0.3-0.7,0.7v9c0.5,0.2,0.9,0.6,1.2,1.1
	c0.2,0.3,0.2,0.7,0.2,1h0V5C15.6,4.6,15.3,4.3,14.9,4.3z"/>
</svg>
