<?xml version="1.0" encoding="utf-8"?>
<!-- Generator: Adobe Illustrator 26.1.0, SVG Export Plug-In . SVG Version: 6.00 Build 0)  -->
<svg version="1.1" id="Layer_1" xmlns="http://www.w3.org/2000/svg" xmlns:xlink="http://www.w3.org/1999/xlink" x="0px" y="0px"
	 viewBox="0 0 24 24" style="enable-background:new 0 0 24 24;" xml:space="preserve">
<path d="M15.7,16.9c0,0.6-0.6,1.2-1.4,1.2c-0.8,0-1.4-0.5-1.4-1.2s0.6-1.2,1.4-1.2C15,15.7,15.7,16.2,15.7,16.9z M8.4,14.6
	c-0.5,0-1.1,0.1-1.6,0.4c-1.3,0.7-2.1,2-1.6,2.9c0.3,0.5,0.9,0.9,1.7,0.9c0.5,0,1.1-0.1,1.6-0.4c1.3-0.7,2.1-2,1.6-2.9
	C9.9,14.9,9.2,14.6,8.4,14.6L8.4,14.6 M8.4,13.6c1.2,0,2.2,0.5,2.6,1.4c0.7,1.4-0.2,3.3-2.1,4.2c-0.7,0.3-1.4,0.5-2,0.5
	c-1.2,0-2.2-0.5-2.6-1.4c-0.7-1.4,0.2-3.3,2.1-4.2C7.1,13.8,7.8,13.6,8.4,13.6L8.4,13.6z M11.3,5v11.1h0c0-0.4-0.1-0.7-0.2-1
	c-0.2-0.5-0.7-0.9-1.2-1.1v-9c0-0.4,0.3-0.7,0.7-0.7C10.9,4.3,11.3,4.6,11.3,5z M18.5,15.7c-0.8,0-1.4,0.5-1.4,1.2s0.6,1.2,1.4,1.2
	c0.8,0,1.4-0.5,1.4-1.2S19.3,15.7,18.5,15.7z"/>
</svg>
