<?xml version="1.0" encoding="utf-8"?>
<!-- Generator: Adobe Illustrator 26.1.0, SVG Export Plug-In . SVG Version: 6.00 Build 0)  -->
<svg version="1.1" id="Layer_1" xmlns="http://www.w3.org/2000/svg" xmlns:xlink="http://www.w3.org/1999/xlink" x="0px" y="0px"
	 viewBox="0 0 24 24" style="enable-background:new 0 0 24 24;" xml:space="preserve">
<path d="M16.7,11.6c-0.6,0-1.3,0.2-2,0.5c-1.8,0.9-2.8,2.8-2.1,4.2c0.5,0.9,1.5,1.4,2.6,1.4c0.6,0,1.3-0.2,2-0.5
	c1.8-0.9,2.8-2.8,2.1-4.2C18.8,12.1,17.8,11.6,16.7,11.6L16.7,11.6z M18.8,2.2c-0.4,0-0.7,0.3-0.7,0.7v9c0.5,0.2,0.9,0.6,1.2,1.1
	c0.2,0.3,0.2,0.7,0.2,1h0V3C19.5,2.6,19.2,2.2,18.8,2.2z M2.4,18.8c4.9,2.5,10.7,2.8,15.7,0.4C13.6,22.8,6.5,22.5,2.4,18.8z
	 M10.5,14.6c-0.4,4.8-10,4.8-10.4,0C0.5,9.8,10.1,9.8,10.5,14.6L10.5,14.6z M9.2,14.6C8.8,12,2,12,1.6,14.6C2,17,8.8,17.1,9.2,14.6
	L9.2,14.6z M23.9,14.3c0,0.8-0.7,1.5-1.5,1.5c-0.8,0-1.5-0.7-1.5-1.5c0-0.8,0.7-1.5,1.5-1.5C23.2,12.8,23.9,13.5,23.9,14.3z"/>
</svg>
