<?xml version="1.0" encoding="utf-8"?>
<!-- Generator: Adobe Illustrator 26.1.0, SVG Export Plug-In . SVG Version: 6.00 Build 0)  -->
<svg version="1.1" id="Layer_1" xmlns="http://www.w3.org/2000/svg" xmlns:xlink="http://www.w3.org/1999/xlink" x="0px" y="0px"
	 viewBox="0 0 24 24" style="enable-background:new 0 0 24 24;" xml:space="preserve">
<path d="M10.8,14.6L10.8,14.6c0.8,0,1.5,0.3,1.7,0.9c0.5,0.9-0.3,2.3-1.6,2.9c-0.5,0.3-1.1,0.4-1.6,0.4c-0.8,0-1.5-0.3-1.7-0.9
	C7.2,17,7.9,15.6,9.2,15C9.8,14.7,10.3,14.6,10.8,14.6 M10.8,13.6c-0.6,0-1.3,0.2-2,0.5C7,15,6.1,16.9,6.8,18.3
	c0.5,0.9,1.5,1.4,2.6,1.4c0.6,0,1.3-0.2,2-0.5c1.8-0.9,2.8-2.8,2.1-4.2C13,14.1,12,13.6,10.8,13.6L10.8,13.6z M12.9,4.3
	c-0.4,0-0.7,0.3-0.7,0.7v9c0.5,0.2,0.9,0.6,1.2,1.1c0.2,0.3,0.2,0.7,0.2,1h0V5C13.7,4.6,13.3,4.3,12.9,4.3z M16.1,14.8
	c-0.8,0-1.4,0.5-1.4,1.2s0.6,1.2,1.4,1.2c0.8,0,1.4-0.5,1.4-1.2S16.9,14.8,16.1,14.8z"/>
</svg>
