<svg xmlns="http://www.w3.org/2000/svg" width="26" height="26" fill="none" viewBox="0 0 26 26">
  <g clip-path="url(#a)">
    <path fill="#000" d="M23.63 11.536h-3.126c-.482 0-.874.656-.874 1.464 0 .809.392 1.464.874 1.464h3.126c.483 0 .874-.655.874-1.464 0-.808-.391-1.464-.874-1.464Zm-12.699 3.84h-.573c-.379 1.449-1.07 2.383-1.709 2.383-1.148 0-2.352-2.92-1.906-6.137.278-2.004 1.13-3.38 1.906-3.38.64 0 1.33.933 1.71 2.383h1.375c-.379-1.71-1.368-3.721-3.085-3.721H6.44c-.98 0-1.864.697-2.486 1.963-.372.756-.63 1.674-.758 2.67H2.37c-.483 0-.874.655-.874 1.463 0 .809.391 1.464.874 1.464h.826c.128.995.386 1.913.758 2.669.622 1.266 1.505 1.963 2.486 1.963h2.21c1.723 0 2.707-2.019 3.084-3.72h-.803Zm10.94 0H21.3c-.38 1.449-1.07 2.383-1.71 2.383-1.099 0-2.283-2.709-1.94-5.859.235-2.153 1.129-3.659 1.94-3.659.64 0 1.33.934 1.71 2.384h1.376a7.86 7.86 0 0 0-.598-1.758c-.623-1.266-1.506-1.963-2.487-1.963H17.38c-1.976 0-2.985 2.618-3.244 4.632H9.434c-.482 0-.874.656-.874 1.464 0 .809.392 1.464.874 1.464h4.703c.309 2.402 1.453 4.632 3.244 4.632h2.209c.981 0 1.864-.697 2.487-1.963a7.865 7.865 0 0 0 .598-1.757h-.803Z"/>
  </g>
  <defs>
    <clipPath id="a">
      <path fill="#fff" d="M0 0h26v26H0z"/>
    </clipPath>
  </defs>
</svg>
