<svg xmlns="http://www.w3.org/2000/svg" width="23" height="23" fill="currentColor" viewBox="0 0 23 23"><path fill="#000" d="m19.251 4.485-.759-.759c-.966-.966-2.53-.966-3.473 0l-2.07 2.07a2.441 2.441 0 0 0-.161 3.289l-.598.598v2.277l1.725-1.725c.437.345.989.529 1.541.529.621 0 1.265-.23 1.748-.713l2.07-2.07c.943-.989.943-2.553-.023-3.496Zm-1.127 2.346-2.07 2.07a.845.845 0 0 1-.989.161.78.78 0 0 0-.069-1.058c-.299-.299-.759-.299-1.081-.046a.756.756 0 0 1-.092-.391c0-.23.092-.437.253-.598l2.07-2.07a.876.876 0 0 1 .598-.253c.207 0 .437.092.598.253l.759.759c.345.299.345.828.023 1.173Z"/><path fill="#000" d="M10.81 13.317V11.04l-1.587 1.587c-.966-.782-2.392-.736-3.289.161l-2.07 2.07c-.966.966-.966 2.53 0 3.473l.759.759a2.433 2.433 0 0 0 1.748.713c.644 0 1.265-.23 1.748-.713l2.07-2.07c.897-.897.966-2.3.184-3.266l.437-.437Zm-1.771 2.599-2.07 2.07a.861.861 0 0 1-1.196 0l-.759-.759a.835.835 0 0 1 0-1.196l2.07-2.07a.876.876 0 0 1 .598-.253.83.83 0 0 1 .46.138.798.798 0 0 0 .759 1.081c.092 0 .184-.023.276-.046a.877.877 0 0 1-.138 1.035Z"/><path fill="#000" d="m7.567 9.614-.322 1.702 2.967-1.058-2.645-.644Z"/><path fill="#000" d="m10.833 6.946-1.748.46 1.656 2.415.092-2.875Z"/><path fill="#000" d="m13.11 16.077 1.564-1.702-2.783-.989 1.219 2.691Z"/><path fill="#000" d="m14.789 13.271.115-1.242-1.725.667 1.61.575Z"/></svg>