<svg xmlns="http://www.w3.org/2000/svg" width="24" height="24" fill="currentColor" viewBox="0 0 24 24"><path fill="#000" d="M9 19.424c0-.201.079-.395.22-.538a.745.745 0 0 1 .53-.223h4.5c.199 0 .39.08.53.223a.767.767 0 0 1 0 1.076.744.744 0 0 1-.53.223h-4.5a.745.745 0 0 1-.53-.223.767.767 0 0 1-.22-.538ZM4.5 12.67c0-1.982 1.853-3.496 3.795-3.312 2.465.234 4.945.234 7.41 0 1.943-.184 3.795 1.33 3.795 3.312v1.76c.006.338-.106.665-.316.926-.21.26-.505.437-.832.498-1.267.224-3.51.526-6.352.526-2.842 0-5.085-.304-6.353-.526a1.396 1.396 0 0 1-.83-.498 1.433 1.433 0 0 1-.317-.925V12.67Zm6.813-1.259a.37.37 0 0 0-.325.104l-1.38 1.37a36.667 36.667 0 0 1-2.807-.279.37.37 0 0 0-.27.08.382.382 0 0 0 .168.673c.825.116 1.848.227 3.03.294a.371.371 0 0 0 .284-.108l1.13-1.12 1.271 2.602a.38.38 0 0 0 .279.207.37.37 0 0 0 .327-.112l1.398-1.476a37.4 37.4 0 0 0 2.883-.287.374.374 0 0 0 .238-.15.385.385 0 0 0-.07-.523.37.37 0 0 0-.27-.08c-.807.113-1.81.22-2.97.288a.373.373 0 0 0-.249.115l-1.131 1.195-1.263-2.587a.38.38 0 0 0-.273-.206Z"/><path fill="#000" d="M12.75 3.24c.286-.168.51-.426.636-.736s.148-.652.063-.976a1.523 1.523 0 0 0-.536-.814 1.486 1.486 0 0 0-1.826 0 1.542 1.542 0 0 0-.473 1.79c.127.31.35.568.636.736v1.726h-3c-1.79 0-3.507.721-4.773 2.006A6.9 6.9 0 0 0 1.5 11.815v.76c-.398 0-.78.16-1.06.446-.282.286-.44.673-.44 1.076v3.044c0 .404.158.791.44 1.077a1.49 1.49 0 0 0 1.06.445v1.522c0 .808.316 1.582.879 2.153.562.57 1.325.891 2.121.891h15c.796 0 1.559-.32 2.121-.891.563-.571.879-1.345.879-2.153v-1.522c.398 0 .78-.16 1.06-.445.282-.286.44-.673.44-1.077v-3.043c0-.404-.158-.791-.44-1.077a1.49 1.49 0 0 0-1.06-.446v-.76a6.9 6.9 0 0 0-1.977-4.843 6.701 6.701 0 0 0-4.773-2.006h-3V3.24ZM21 11.815v8.37c0 .404-.158.791-.44 1.077a1.49 1.49 0 0 1-1.06.445h-15c-.398 0-.78-.16-1.06-.445A1.534 1.534 0 0 1 3 20.184v-8.37c0-1.413.553-2.768 1.538-3.767a5.212 5.212 0 0 1 3.712-1.56h7.5c1.392 0 2.728.56 3.712 1.56A5.367 5.367 0 0 1 21 11.815Z"/></svg>