<svg xmlns="http://www.w3.org/2000/svg" width="24" height="24" fill="currentColor" viewBox="0 0 24 24"><path fill="#000" d="m22.963 2.12-1.082-1.085c-1.376-1.38-3.605-1.38-4.95 0l-2.95 2.957c-1.278 1.281-1.377 3.318-.23 4.698l-.852.854v3.253l2.459-2.464a3.56 3.56 0 0 0 2.196.755c.885 0 1.803-.328 2.492-1.018l2.95-2.957c1.344-1.413 1.344-3.647-.033-4.994Zm-1.606 3.35-2.95 2.957c-.394.394-.951.46-1.41.23.36-.46.328-1.117-.098-1.511-.426-.427-1.082-.427-1.541-.066a1.082 1.082 0 0 1-.131-.558c0-.329.131-.625.36-.855l2.95-2.957c.23-.23.558-.36.853-.36.295 0 .623.13.852.36l1.082 1.085c.492.427.492 1.182.033 1.675Z"/><path fill="#000" d="M10.932 14.735v-3.252l-2.261 2.266c-1.377-1.117-3.41-1.05-4.688.23l-2.95 2.957c-1.377 1.38-1.377 3.614 0 4.961l1.081 1.085A3.464 3.464 0 0 0 4.606 24c.918 0 1.803-.328 2.491-1.018l2.95-2.957a3.488 3.488 0 0 0 .263-4.666l.622-.624Zm-2.524 3.713-2.95 2.956c-.459.46-1.246.46-1.705 0L2.672 20.32a1.194 1.194 0 0 1 0-1.708l2.95-2.957c.23-.23.557-.361.852-.361.23 0 .46.065.656.197-.164.427-.066.887.262 1.215.23.23.525.329.82.329.13 0 .262-.033.393-.066.262.46.197 1.051-.197 1.479Z"/><path fill="#000" d="m6.31 9.446-.459 2.43 4.23-1.51-3.77-.92Z"/><path fill="#000" d="m10.965 5.635-2.491.657 2.36 3.45.131-4.108Z"/><path fill="#000" d="m14.21 18.678 2.23-2.432-3.967-1.412 1.738 3.844Z"/><path fill="#000" d="m16.604 14.67.164-1.775-2.459.953 2.295.821Z"/></svg>