<svg xmlns="http://www.w3.org/2000/svg" width="24" height="24" fill="currentColor" viewBox="0 0 24 24"><path fill="#000" d="M4.308 3.04v2.987c0 .412.344.746.769.746.425 0 .77-.334.77-.746V3.04a.758.758 0 0 0-.77-.747.758.758 0 0 0-.77.747Z"/><path fill="#000" d="M18.154 3.04v2.987c0 .412.345.746.77.746.424 0 .768-.334.768-.746V3.04a.758.758 0 0 0-.769-.747.759.759 0 0 0-.77.747Z"/><path fill="#000" d="M2 1.547V7.52c0 .412.345.747.77.747.424 0 .768-.335.768-.747V1.547A.758.758 0 0 0 2.77.8.758.758 0 0 0 2 1.547Z"/><path fill="#000" d="M20.462 1.547V7.52c0 .412.344.747.769.747.424 0 .769-.335.769-.747V1.547A.758.758 0 0 0 21.23.8a.759.759 0 0 0-.768.747Z"/><path fill="#000" d="M9.692 23.2h4.616c.424 0 .769-.334.769-.747a.758.758 0 0 0-.77-.746H9.693a.758.758 0 0 0-.769.746c0 .413.345.747.77.747Z"/><path fill="#000" d="M11.23 17.973v4.48c0 .413.345.747.77.747.425 0 .77-.334.77-.747v-4.48a.758.758 0 0 0-.77-.746.758.758 0 0 0-.77.746Z"/><path fill="#000" d="M16.615 12h-2.769c-.595 0-1.077-.335-1.077-.747s.482-.746 1.077-.746h2.77V9.013h-2.77c-.595 0-1.077-.334-1.077-.746s.482-.747 1.077-.747h2.77V6.027h-2.77c-.595 0-1.077-.335-1.077-.747s.482-.747 1.077-.747h2.77v-1.12C16.615 1.971 15.408.8 13.922.8h-3.846C8.59.8 7.385 1.97 7.385 3.413v1.13c.05-.006.101-.01.153-.01h2.77c.509 0 .923.335.923.747s-.414.747-.923.747h-2.77c-.052 0-.103-.004-.153-.01V7.53c.05-.006.101-.01.153-.01h2.77c.509 0 .923.335.923.747s-.414.746-.923.746h-2.77c-.052 0-.103-.003-.153-.01v1.514c.05-.007.101-.01.153-.01h2.77c.509 0 .923.334.923.746s-.414.747-.923.747h-2.77a1.16 1.16 0 0 1-.153-.01v1.13c0 1.443 1.206 2.613 2.692 2.613h3.846c1.486 0 2.692-1.17 2.692-2.613V12Z"/><path fill="#000" d="M4.308 10.507v4.106c0 2.267 1.895 4.107 4.23 4.107h6.923c2.336 0 4.231-1.84 4.231-4.107v-4.106a.758.758 0 0 0-.769-.747.759.759 0 0 0-.77.747v4.106c0 1.443-1.205 2.614-2.691 2.614H8.537c-1.486 0-2.692-1.171-2.692-2.614v-4.106a.758.758 0 0 0-.77-.747.759.759 0 0 0-.768.747Z"/></svg>