<svg xmlns="http://www.w3.org/2000/svg" width="19" height="19" fill="none" viewBox="0 0 19 19">
  <path fill="#000" fill-rule="evenodd" d="M3.563 2.375V4.75a.594.594 0 0 0 1.187 0V2.375a.594.594 0 0 0-1.188 0Zm10.687 0V4.75a.594.594 0 0 0 1.188 0V2.375a.594.594 0 0 0-1.188 0ZM1.781 1.188v4.75a.594.594 0 0 0 1.188 0v-4.75a.594.594 0 0 0-1.188 0Zm14.25 0v4.75a.594.594 0 0 0 1.188 0v-4.75a.594.594 0 0 0-1.188 0ZM7.719 18.406h3.562a.594.594 0 0 0 0-1.187H7.72a.594.594 0 0 0 0 1.187Z" clip-rule="evenodd"/>
  <path fill="#000" fill-rule="evenodd" d="M8.906 14.25v3.563a.594.594 0 0 0 1.188 0V14.25a.594.594 0 0 0-1.188 0Zm4.157-4.75h-2.138c-.459 0-.831-.266-.831-.594 0-.328.372-.594.831-.594h2.137V7.125h-2.137c-.459 0-.831-.266-.831-.594 0-.327.372-.593.831-.593h2.137V4.75h-2.137c-.459 0-.831-.266-.831-.594 0-.327.372-.593.831-.593h2.137v-.891A2.079 2.079 0 0 0 10.985.594H8.016a2.079 2.079 0 0 0-2.079 2.078v.899a.867.867 0 0 1 .12-.009h2.137c.393 0 .712.267.712.594 0 .328-.32.594-.712.594H6.056a.867.867 0 0 1-.119-.008v1.204a.867.867 0 0 1 .12-.008h2.137c.393 0 .712.266.712.593 0 .328-.32.594-.712.594H6.056a.867.867 0 0 1-.119-.008V8.32a.867.867 0 0 1 .12-.008h2.137c.393 0 .712.265.712.593 0 .328-.32.594-.712.594H6.056a.867.867 0 0 1-.119-.008v.899c0 1.147.931 2.078 2.079 2.078h2.968a2.079 2.079 0 0 0 2.079-2.078V9.5Z" clip-rule="evenodd"/>
  <path fill="#000" fill-rule="evenodd" d="M3.563 8.313v3.265a3.267 3.267 0 0 0 3.265 3.266h5.344a3.267 3.267 0 0 0 3.265-3.266V8.313a.594.594 0 0 0-1.187 0v3.265a2.079 2.079 0 0 1-2.078 2.078H6.828a2.079 2.079 0 0 1-2.078-2.078V8.313a.594.594 0 0 0-1.188 0Z" clip-rule="evenodd"/>
</svg>
