<svg xmlns="http://www.w3.org/2000/svg" width="24" height="24" fill="currentColor" viewBox="0 0 24 24"><path fill="#000" d="M16.541 2.535A.55.55 0 0 0 15.978 2a.55.55 0 0 0-.562.535v6.981c0 .892-.385 1.704-1.004 2.292a3.496 3.496 0 0 1-2.412.954 3.497 3.497 0 0 1-2.412-.954 3.158 3.158 0 0 1-1.004-2.292V2.535A.55.55 0 0 0 8.022 2a.55.55 0 0 0-.563.535v6.981c0 1.187.51 2.266 1.334 3.048A4.649 4.649 0 0 0 12 13.831a4.65 4.65 0 0 0 3.207-1.267c.823-.782 1.334-1.86 1.334-3.048V2.535Z"/><path fill="#000" d="M12.385 13.293a.55.55 0 0 0-.563-.534c-.31 0-.562.239-.562.534v7.937a.55.55 0 0 0 .563.535.55.55 0 0 0 .562-.535v-7.937Z"/><path fill="#000" d="M8.055 20.696c-.31 0-.563.239-.563.534 0 .295.252.535.563.535h7.535c.31 0 .563-.24.563-.535a.549.549 0 0 0-.563-.534H8.055Z"/><path fill="#000" d="M19.642 4.21a.58.58 0 0 0-.782.125c-.18.24-.12.573.132.743.475.321.867.748 1.136 1.244.259.475.404 1.017.404 1.594 0 .576-.145 1.118-.404 1.594-.27.495-.66.922-1.136 1.243a.516.516 0 0 0-.132.743c.18.24.53.296.782.126a4.641 4.641 0 0 0 1.484-1.624 4.347 4.347 0 0 0 0-4.165 4.64 4.64 0 0 0-1.484-1.623Z"/><path fill="#000" d="M21.093 2.568a.58.58 0 0 0-.783.125c-.18.24-.12.572.132.743A5.613 5.613 0 0 1 22.235 5.4a5.25 5.25 0 0 1 .64 2.517 5.25 5.25 0 0 1-.64 2.516 5.612 5.612 0 0 1-1.793 1.963.516.516 0 0 0-.132.744c.18.24.53.295.783.125a6.7 6.7 0 0 0 2.14-2.343 6.272 6.272 0 0 0 0-6.01 6.699 6.699 0 0 0-2.14-2.343Z"/><path fill="#000" d="M5.008 5.078a.516.516 0 0 0 .132-.743.58.58 0 0 0-.783-.125c-.62.419-1.13.976-1.483 1.623a4.347 4.347 0 0 0 0 4.165 4.64 4.64 0 0 0 1.483 1.624.58.58 0 0 0 .783-.126.516.516 0 0 0-.132-.743A3.555 3.555 0 0 1 3.872 9.51a3.326 3.326 0 0 1-.405-1.594c0-.577.147-1.119.405-1.594.27-.496.66-.923 1.136-1.244Z"/><path fill="#000" d="M3.558 3.436a.516.516 0 0 0 .132-.743.58.58 0 0 0-.783-.125A6.699 6.699 0 0 0 .767 4.91a6.271 6.271 0 0 0 0 6.01 6.7 6.7 0 0 0 2.14 2.343.58.58 0 0 0 .783-.125.516.516 0 0 0-.132-.744 5.612 5.612 0 0 1-1.794-1.963 5.25 5.25 0 0 1-.639-2.516c0-.91.23-1.765.64-2.517a5.612 5.612 0 0 1 1.793-1.963Z"/></svg>