<svg xmlns="http://www.w3.org/2000/svg" width="25" height="24" fill="currentColor" viewBox="0 0 25 24"><path fill="#000" d="M23.688 10.27h-3.26c-.504 0-.912.661-.912 1.476 0 .816.408 1.476.912 1.476h3.26c.504 0 .912-.66.912-1.476 0-.815-.409-1.475-.912-1.475Zm-13.246 3.872h-.598c-.395 1.46-1.115 2.402-1.782 2.402-1.198 0-2.454-2.944-1.989-6.187.29-2.02 1.179-3.409 1.989-3.409.667 0 1.387.942 1.782 2.403h1.436c-.396-1.724-1.428-3.75-3.218-3.75H5.758c-1.024 0-1.945.702-2.594 1.979-.388.761-.657 1.687-.79 2.69h-.862c-.504 0-.912.661-.912 1.476 0 .816.408 1.476.912 1.476h.862c.133 1.004.402 1.93.79 2.691.649 1.277 1.57 1.98 2.594 1.98h2.304c1.797 0 2.824-2.036 3.218-3.751h-.838Zm11.412 0h-.597c-.396 1.46-1.116 2.402-1.783 2.402-1.147 0-2.382-2.73-2.025-5.906.245-2.172 1.178-3.69 2.025-3.69.667 0 1.387.942 1.783 2.403h1.435a7.748 7.748 0 0 0-.624-1.771c-.65-1.277-1.57-1.98-2.594-1.98H17.17c-2.062 0-3.114 2.64-3.384 4.67H8.88c-.504 0-.912.661-.912 1.476 0 .816.408 1.476.912 1.476H13.786c.322 2.422 1.515 4.67 3.384 4.67h2.304c1.023 0 1.945-.702 2.594-1.979a7.754 7.754 0 0 0 .624-1.771h-.838Z"/></svg>