<svg xmlns="http://www.w3.org/2000/svg" width="24" height="24" fill="currentColor" viewBox="0 0 24 24"><path fill="#000" d="M11.022 6.906c-.002.019-.002.037-.002.055v4.606a2.755 2.755 0 1 0-.743 5.406 2.755 2.755 0 0 0 2.754-2.754l-.008-4.841 1.303 1.303a1.002 1.002 0 0 0 1.415-1.416L12.73 6.253a1 1 0 0 0-1.707.653Zm-.745 6.562a.751.751 0 1 1 0 1.503.751.751 0 0 1 0-1.503Z"/><path fill="#000" d="m18.835 20.252 3.455 3.455a1.002 1.002 0 0 0 1.416-1.416l-3.455-3.455a11.42 11.42 0 0 0 2.684-7.37C22.935 5.139 17.797 0 11.468 0 5.139 0 0 5.138 0 11.467c0 6.328 5.139 11.465 11.468 11.465a11.42 11.42 0 0 0 7.367-2.68Zm-7.367-18.25c5.224 0 9.465 4.24 9.465 9.465 0 5.222-4.241 9.463-9.465 9.463-5.223 0-9.465-4.24-9.465-9.463 0-5.224 4.242-9.464 9.465-9.464Z"/></svg>