<svg xmlns="http://www.w3.org/2000/svg" width="24" height="24" fill="currentColor" viewBox="0 0 24 24"><path fill="#000" d="M20.031 4.167a.53.53 0 0 0-.73.109.501.501 0 0 0 .112.712c2.218 1.59 3.542 4.135 3.542 6.809 0 2.673-1.324 5.219-3.542 6.808a.502.502 0 0 0-.112.713.53.53 0 0 0 .73.11C22.516 17.645 24 14.793 24 11.796s-1.484-5.85-3.969-7.63Z"/><path fill="#000" d="M16.542 16.675a.502.502 0 0 0-.112.712.529.529 0 0 0 .73.109c1.857-1.33 2.965-3.46 2.965-5.7 0-2.238-1.108-4.368-2.965-5.699a.531.531 0 0 0-.73.11.501.501 0 0 0 .112.712c1.59 1.139 2.538 2.962 2.538 4.878 0 1.915-.949 3.739-2.538 4.878Z"/><path fill="#000" d="M13.672 14.745a.5.5 0 0 0-.112.712.526.526 0 0 0 .73.11 4.657 4.657 0 0 0 1.96-3.77 4.657 4.657 0 0 0-1.96-3.77.53.53 0 0 0-.73.109.501.501 0 0 0 .113.712 3.643 3.643 0 0 1 1.532 2.948c0 1.16-.573 2.262-1.533 2.95Z"/><path fill="#000" d="M11.103 5.721H1.01c-.267 0-.524.104-.713.289A.973.973 0 0 0 0 6.706v9.846c0 .261.106.512.296.697.189.184.446.288.713.288h10.094c.268 0 .525-.104.714-.288a.973.973 0 0 0 .296-.697V6.706a.973.973 0 0 0-.296-.696 1.022 1.022 0 0 0-.714-.289Zm-6.308 7.385a.511.511 0 0 0 .356-.144.486.486 0 0 0 .148-.348V6.706h1.514v5.908c0 .13.053.255.148.348a.511.511 0 0 0 .357.144h.505v3.446H4.29v-3.446h.505Zm-3.786-6.4h1.262v5.908c0 .13.053.255.148.348a.511.511 0 0 0 .357.144h.504v3.446H1.01V6.706Zm10.094 9.846h-2.27v-3.446h.504a.511.511 0 0 0 .357-.144.486.486 0 0 0 .147-.348V6.706h1.262v9.846Z"/></svg>