<svg xmlns="http://www.w3.org/2000/svg" width="24" height="24" fill="currentColor" viewBox="0 0 24 24"><path fill="#000" d="M19.845 3.315a.56.56 0 0 0-.764.112.513.513 0 0 0 .117.735c2.322 1.64 3.709 4.268 3.709 7.027 0 2.76-1.387 5.387-3.71 7.027a.513.513 0 0 0-.116.735.56.56 0 0 0 .764.113C22.447 17.226 24 14.282 24 11.189s-1.553-6.036-4.155-7.874Z"/><path fill="#000" d="M16.192 16.224a.513.513 0 0 0-.116.735.56.56 0 0 0 .764.113c1.943-1.374 3.103-3.572 3.103-5.883 0-2.31-1.16-4.509-3.103-5.882a.561.561 0 0 0-.764.113.513.513 0 0 0 .116.735c1.664 1.175 2.658 3.057 2.658 5.034 0 1.977-.994 3.86-2.658 5.035Z"/><path fill="#000" d="M13.189 14.232a.512.512 0 0 0-.118.735.559.559 0 0 0 .764.113c1.285-.906 2.052-2.36 2.052-3.891 0-1.53-.767-2.985-2.051-3.891a.56.56 0 0 0-.764.113.513.513 0 0 0 .117.735c1.005.709 1.604 1.846 1.604 3.043 0 1.196-.6 2.334-1.604 3.043Z"/><path fill="#000" d="M0 3.103v16.346c0 .04.01.079.028.115.02.037.047.07.081.099l.18.147a5 5 0 0 0 1.571.855 5.79 5.79 0 0 0 1.855.297h3.002a5.79 5.79 0 0 0 1.854-.297 5 5 0 0 0 1.57-.855l.181-.147a.277.277 0 0 0 .11-.214V3.103c0-.08-.04-.158-.11-.214a.42.42 0 0 0-.263-.089H.373a.42.42 0 0 0-.264.089.277.277 0 0 0-.109.214Zm5.961 6.962h-.745V7.038h.745v3.027Zm-3.726 3.027h.745v.605h-.745v-.605Zm2.236-6.054v4.238h-.745V7.038h.745Zm-1.49 0v5.448h-.746V7.038h.745Zm.745 4.843h.745v.605h-.745v-.605Zm1.49-1.21h.745v.605h-.745v-.606ZM1.49 7.037v6.66H.745v-6.66h.745Zm0 7.265v.605H.745v-.605h.745Zm0 1.21v3.028H.745v-3.027h.745Zm.745-1.21h.745v4.16a1.345 1.345 0 0 1-.453.078h-.292v-4.238Zm1.49-1.211h.746v3.728l-.009.01-.736.958v-4.696Zm1.49-1.21h.746v4.239a2.21 2.21 0 0 0-.745.154v-4.394Zm1.491 4.237V10.67h.745v5.449h-.745Zm0-6.054V9.46h.745v.605h-.745Zm0-1.21V7.037h.745v1.816h-.745ZM.746 6.431V3.405H7.45v3.027H.745Zm2.969 13.925a4.9 4.9 0 0 1-1.57-.252 4.231 4.231 0 0 1-1.328-.724l-.072-.058v-.177h1.782c.316 0 .627-.064.904-.189.276-.124.51-.304.676-.522l.987-1.284c.1-.13.24-.239.406-.313.165-.075.352-.114.542-.114h1.41v2.6l-.073.058c-.38.31-.83.556-1.328.723a4.9 4.9 0 0 1-1.57.252h-.766Zm5.972-1.034-.072.059c-.675.551-1.568.891-2.522.96a4.84 4.84 0 0 0 .813-.532l.181-.147a.307.307 0 0 0 .08-.098.254.254 0 0 0 .03-.116V3.405h1.49v15.918Z"/><path fill="#000" d="M1.277 4.314v1.21c0 .08.04.158.11.214a.42.42 0 0 0 .263.09h4.47a.42.42 0 0 0 .264-.09.277.277 0 0 0 .11-.214v-1.21c0-.08-.04-.158-.11-.214a.42.42 0 0 0-.263-.09H1.65a.42.42 0 0 0-.264.09.277.277 0 0 0-.109.214Zm4.471.302v.606H2.022v-.606h3.726Z"/></svg>