<svg xmlns="http://www.w3.org/2000/svg" width="70" height="70" fill="currentColor" viewBox="0 0 70 70"><path fill="#000" d="M57.261 14.035a1.4 1.4 0 1 0-1.657 2.257C61.55 20.659 65.1 27.652 65.1 35c0 7.347-3.55 14.34-9.496 18.709a1.4 1.4 0 0 0 1.657 2.257C63.923 51.072 67.9 43.235 67.9 35c0-8.235-3.977-16.072-10.639-20.965Z"/><path fill="#000" d="M47.909 48.404a1.4 1.4 0 0 0 1.657 2.256c4.976-3.655 7.947-9.51 7.947-15.66s-2.971-12.005-7.947-15.66a1.4 1.4 0 0 0-1.657 2.256c4.26 3.13 6.804 8.14 6.804 13.404 0 5.264-2.544 10.274-6.804 13.404Z"/><path fill="#000" d="M47 35.5C47 47.926 36.926 58 24.5 58S2 47.926 2 35.5 12.074 13 24.5 13 47 23.074 47 35.5Z"/><path fill="#fff" d="M28.655 24.197V16.36h-1.343v7.837c0 .556-.451 1.007-1.008 1.007h-3.257a1.008 1.008 0 0 1-1.008-1.007V16.36h-1.343v7.837a2.35 2.35 0 0 0 2.351 2.35h3.258a2.35 2.35 0 0 0 2.35-2.35Z"/><path fill="#fff" d="m20.723 46.728-.076 7.837 1.343.013.076-7.837a1.007 1.007 0 0 1 1.017-.998l3.258.032c.556.006 1.003.46.997 1.017l-.076 7.837 1.344.013.076-7.837a2.35 2.35 0 0 0-2.328-2.373l-3.258-.032a2.35 2.35 0 0 0-2.373 2.328Z"/><path fill="#fff" d="m18.65 27.363-7.324-4.228-.671 1.163 7.323 4.228c.482.278.647.895.368 1.376l-1.628 2.822a1.007 1.007 0 0 1-1.376.368l-7.324-4.228-.671 1.164 7.323 4.228a2.35 2.35 0 0 0 3.211-.86l1.629-2.822a2.35 2.35 0 0 0-.86-3.211Z"/><path fill="#fff" d="m31.01 43.53 7.323 4.228.671-1.164-7.323-4.228a1.007 1.007 0 0 1-.369-1.376l1.63-2.82a1.007 1.007 0 0 1 1.375-.37l7.323 4.228.672-1.163-7.323-4.228a2.35 2.35 0 0 0-3.211.86l-1.629 2.822a2.35 2.35 0 0 0 .86 3.21Z"/><path fill="#fff" d="M13.743 37.765 7.325 42.26l.77 1.1 6.419-4.494a1.007 1.007 0 0 1 1.403.248l1.868 2.668c.32.456.209 1.084-.247 1.403L11.12 47.68l.77 1.1 6.418-4.494a2.35 2.35 0 0 0 .578-3.274l-1.869-2.669a2.35 2.35 0 0 0-3.274-.577Z"/><path fill="#fff" d="m35.146 34.06 6.418-4.495-.77-1.1-6.418 4.494a1.007 1.007 0 0 1-1.404-.247l-1.868-2.669a1.007 1.007 0 0 1 .247-1.403l6.419-4.494-.77-1.1-6.42 4.494a2.35 2.35 0 0 0-.576 3.274l1.868 2.668a2.35 2.35 0 0 0 3.274.577Z"/></svg>