<svg xmlns="http://www.w3.org/2000/svg" width="24" height="24" fill="currentColor" viewBox="0 0 24 24"><path fill="#000" d="M20.125 4.368a.518.518 0 0 0-.712.107.49.49 0 0 0 .109.695c2.166 1.553 3.458 4.04 3.458 6.652 0 2.613-1.293 5.1-3.458 6.652a.49.49 0 0 0-.11.696.516.516 0 0 0 .713.107C22.552 17.537 24 14.75 24 11.822s-1.448-5.714-3.875-7.454Z"/><path fill="#000" d="M16.72 16.588a.49.49 0 0 0-.11.696.516.516 0 0 0 .713.107c1.812-1.3 2.894-3.382 2.894-5.569s-1.082-4.268-2.894-5.568a.518.518 0 0 0-.713.107.49.49 0 0 0 .11.696c1.55 1.112 2.477 2.894 2.477 4.765 0 1.872-.926 3.653-2.478 4.766Z"/><path fill="#000" d="M16.389 12c0 4.418-3.67 8-8.195 8S0 16.418 0 12s3.669-8 8.194-8c4.526 0 8.194 3.582 8.194 8Z"/><path fill="#fff" d="M9.708 7.981V5.195h-.49V7.98a.363.363 0 0 1-.367.358H7.665a.363.363 0 0 1-.367-.358V5.195h-.49V7.98c0 .462.384.836.857.836h1.186a.846.846 0 0 0 .857-.836Z"/><path fill="#fff" d="M6.819 15.992 6.79 18.78l.49.004.027-2.786a.363.363 0 0 1 .37-.355l1.187.011a.362.362 0 0 1 .363.362L9.2 18.801l.49.005.027-2.786a.846.846 0 0 0-.848-.844l-1.186-.011a.847.847 0 0 0-.864.827Z"/><path fill="#fff" d="M6.064 9.107 3.397 7.604l-.245.413L5.819 9.52a.354.354 0 0 1 .134.49l-.593 1.003a.372.372 0 0 1-.501.13L2.192 9.642l-.245.413 2.667 1.504c.41.23.933.093 1.17-.306l.593-1.003a.825.825 0 0 0-.313-1.142Z"/><path fill="#fff" d="m10.565 14.855 2.667 1.503.245-.413-2.668-1.504a.354.354 0 0 1-.134-.489l.593-1.003a.372.372 0 0 1 .502-.131l2.667 1.503.244-.413-2.667-1.504a.868.868 0 0 0-1.17.306l-.592 1.003c-.237.4-.097.911.313 1.142Z"/><path fill="#fff" d="m4.277 12.805-2.338 1.598.28.391 2.338-1.597a.373.373 0 0 1 .511.088l.68.948a.353.353 0 0 1-.09.5L3.322 16.33l.28.391 2.338-1.598a.823.823 0 0 0 .21-1.164l-.68-.948a.87.87 0 0 0-1.192-.206Z"/><path fill="#fff" d="M12.071 11.488 14.41 9.89l-.28-.391-2.338 1.598a.373.373 0 0 1-.511-.088l-.68-.95a.353.353 0 0 1 .09-.498l2.337-1.598-.28-.391-2.338 1.598a.823.823 0 0 0-.21 1.164l.68.949a.87.87 0 0 0 1.192.205Z"/></svg>