<svg xmlns="http://www.w3.org/2000/svg" width="24" height="24" fill="currentColor" viewBox="0 0 24 24"><path fill="#000" d="M19.887 4.104a.546.546 0 0 0-.757.114.53.53 0 0 0 .116.747c2.299 1.668 3.671 4.338 3.671 7.143 0 2.805-1.372 5.475-3.671 7.143a.53.53 0 0 0-.116.747.542.542 0 0 0 .757.114C22.462 18.245 24 15.253 24 12.109c0-3.144-1.538-6.136-4.113-8.004Z"/><path fill="#000" d="M16.27 17.225a.53.53 0 0 0-.116.748.543.543 0 0 0 .757.114c1.924-1.396 3.073-3.63 3.073-5.979 0-2.348-1.149-4.583-3.073-5.979a.546.546 0 0 0-.757.114.53.53 0 0 0 .116.748 6.35 6.35 0 0 1 2.631 5.117 6.35 6.35 0 0 1-2.63 5.117Z"/><path fill="#000" d="M13.296 15.201a.53.53 0 0 0-.116.747.543.543 0 0 0 .757.115 4.904 4.904 0 0 0 2.03-3.955c0-1.556-.759-3.034-2.03-3.955a.545.545 0 0 0-.756.114.53.53 0 0 0 .116.747 3.836 3.836 0 0 1 1.588 3.094 3.836 3.836 0 0 1-1.589 3.093Z"/><path fill="#231F20" d="M9.938 5.339H1.224c-.324 0-.636.128-.865.354-.23.227-.359.534-.359.855v11.12c0 .321.13.628.359.855.23.226.54.354.865.354h8.714c.325 0 .636-.128.865-.354.23-.227.36-.534.36-.854V6.548c0-.32-.13-.628-.36-.855a1.233 1.233 0 0 0-.865-.354Zm.735 12.33a.721.721 0 0 1-.216.512.74.74 0 0 1-.519.213H1.224a.74.74 0 0 1-.519-.213.721.721 0 0 1-.215-.512V6.548c0-.193.077-.377.215-.513a.74.74 0 0 1 .52-.213h8.713a.74.74 0 0 1 .52.213c.137.136.215.32.215.513v11.12Z"/><path fill="#231F20" d="M5.581 13.313c-.626.001-1.225.247-1.668.684a2.318 2.318 0 0 0-.692 1.647c.13 3.092 4.591 3.091 4.72 0 0-.618-.249-1.21-.692-1.647a2.379 2.379 0 0 0-1.668-.684Zm0 4.178c-.496 0-.971-.195-1.322-.541a1.837 1.837 0 0 1-.548-1.306c.094-2.447 3.647-2.446 3.74 0 0 .49-.197.96-.548 1.306-.35.346-.826.54-1.322.541Z"/><path fill="#231F20" d="M5.581 14.171c-1.971.062-1.97 2.885 0 2.946 1.972-.062 1.971-2.884 0-2.946Zm0 2.463a1.008 1.008 0 0 1-.702-.294.983.983 0 0 1 0-1.392c.186-.186.438-.29.702-.293.264.002.517.107.703.293a.983.983 0 0 1 0 1.393c-.186.185-.439.29-.703.293Z"/><path fill="#231F20" d="M10.081 7.185h-.446V6.5a.24.24 0 0 0-.151-.223.248.248 0 0 0-.094-.019h-.907a.248.248 0 0 0-.226.15.24.24 0 0 0-.019.092v.684h-.281V6.5a.24.24 0 0 0-.151-.223.248.248 0 0 0-.094-.019h-.907a.248.248 0 0 0-.226.15.24.24 0 0 0-.018.092v.684h-.282V6.5a.24.24 0 0 0-.15-.223.248.248 0 0 0-.094-.019h-.907a.248.248 0 0 0-.226.15.24.24 0 0 0-.019.092v.684h-.281V6.5a.24.24 0 0 0-.151-.223.248.248 0 0 0-.094-.019H3.45a.248.248 0 0 0-.226.15.239.239 0 0 0-.018.092v.684h-.282V6.5a.24.24 0 0 0-.151-.223.248.248 0 0 0-.094-.019h-.906a.248.248 0 0 0-.227.15.24.24 0 0 0-.018.092v.684H1.08a.248.248 0 0 0-.226.149.239.239 0 0 0-.019.093v.87a.239.239 0 0 0 .151.223c.03.012.062.019.094.019h.447v2.192a.685.685 0 0 0 .207.483.703.703 0 0 0 .982 0 .685.685 0 0 0 .207-.483V8.54h.282v3.01a.685.685 0 0 0 .207.482.702.702 0 0 0 .982 0 .685.685 0 0 0 .207-.482v-3.01h.281v3.676a.685.685 0 0 0 .207.483.703.703 0 0 0 .982 0c.13-.128.205-.301.207-.483V8.54h.282v3.01a.685.685 0 0 0 .207.482.703.703 0 0 0 .982 0c.13-.128.205-.3.207-.482v-3.01h.281v2.192a.681.681 0 0 0 .205.488.698.698 0 0 0 .493.202.705.705 0 0 0 .646-.426.681.681 0 0 0 .053-.264V8.54h.446a.248.248 0 0 0 .226-.15.24.24 0 0 0 .02-.092v-.87a.24.24 0 0 0-.152-.224.248.248 0 0 0-.094-.018Zm-8.755.87v-.387h.202v.387h-.202Zm1.108 2.676a.205.205 0 0 1-.062.143.21.21 0 0 1-.292 0 .205.205 0 0 1-.063-.143V6.743h.417v3.988Zm.49-2.676v-.387h.282v.387h-.282Zm1.188 3.494a.205.205 0 0 1-.062.143.21.21 0 0 1-.292 0 .205.205 0 0 1-.063-.143V6.743h.417v4.806Zm.49-3.494v-.387h.281v.387h-.281Zm.98 4.366a.21.21 0 0 1-.148-.06.205.205 0 0 1-.061-.146V6.743h.417V12.215a.205.205 0 0 1-.061.146.21.21 0 0 1-.148.06Zm.697-4.366v-.387h.282v.387h-.282Zm.98 3.7a.21.21 0 0 1-.148-.06.205.205 0 0 1-.06-.146V6.743h.416v4.806a.205.205 0 0 1-.06.145.21.21 0 0 1-.148.06Zm.698-3.7v-.387h.281v.387h-.281Zm1.188 2.676a.205.205 0 0 1-.063.143.21.21 0 0 1-.291 0 .205.205 0 0 1-.063-.143V6.743h.417v3.988Zm.691-2.676h-.201v-.387h.201v.387Z"/></svg>