<svg xmlns="http://www.w3.org/2000/svg" width="39" height="40" fill="none" viewBox="0 0 39 40">
  <path fill="#000" d="M31.969 8.434a.772.772 0 1 0-.915 1.245 12.864 12.864 0 0 1 5.241 10.326c0 4.056-1.959 7.916-5.241 10.327a.773.773 0 0 0 .915 1.245 14.414 14.414 0 0 0 5.872-11.572c0-4.545-2.195-8.87-5.872-11.571Z"/>
  <path fill="#000" d="M26.807 27.404a.773.773 0 0 0 .915 1.245 10.77 10.77 0 0 0 4.386-8.644 10.77 10.77 0 0 0-4.386-8.643.773.773 0 0 0-.915 1.245 9.218 9.218 0 0 1 3.755 7.398 9.218 9.218 0 0 1-3.755 7.399Zm-4.246-2.927a.772.772 0 1 0 .915 1.246 7.117 7.117 0 0 0 2.898-5.718 7.118 7.118 0 0 0-2.898-5.718.772.772 0 1 0-.914 1.246 5.567 5.567 0 0 1 2.267 4.472 5.57 5.57 0 0 1-2.268 4.472ZM20.087 12.17c.39.22.581.979 1.336.979.502 0 .8-.49.8-.924 0-.552-.328-1.582-1.515-2.079-2.085-.873-3.928.16-4.182 2.45-.526-.063-.856-.419-1.03-.681-.1-.15-.302-.286-.482-.286H8.59c-.18 0-.382.136-.481.286-.174.262-.505.619-1.03.68-.255-2.29-2.097-3.322-4.182-2.449-1.187.497-1.516 1.527-1.516 2.079 0 .434.298.924.8.924.755 0 .947-.76 1.337-.98.54-.306 1.486-.07 1.27 1.813-.217 1.882-2.671 3.84-2.671 10.03 0 5.337 5.483 6.67 9.686 6.67 4.202 0 9.686-1.333 9.686-6.67 0-6.19-2.455-8.148-2.671-10.03-.217-1.882.73-2.119 1.27-1.813Zm-4.703 1.739v10.995a6.18 6.18 0 0 1-.744.192V13.91h.744Zm-1.07 11.243a10.4 10.4 0 0 1-.744.084V13.91h.744v11.243Zm-1.07.106a20.71 20.71 0 0 1-.744.027V13.909h.744v11.35Zm-1.07-11.35v11.38a58.256 58.256 0 0 1-.745 0v-11.38h.745Zm-1.07 11.377a19.599 19.599 0 0 1-.745-.027v-11.35h.745v11.377Zm-1.07-.049c-.251-.02-.5-.047-.745-.084V13.909h.745v11.327ZM8.964 13.91v11.187a6.154 6.154 0 0 1-.745-.192V13.91h.745Zm-3.148 8.28c-.6-3.273.985-5.54 1.253-8.282h.825v10.877c-1.026-.42-1.82-1.189-2.078-2.595Zm10.22 5.396c0 .18-.146.326-.326.326H7.893a.326.326 0 0 1-.325-.326v-.325c0-.18.146-.326.326-.326h7.816c.18 0 .325.146.325.326v.325Zm1.751-5.396c-.257 1.406-1.051 2.175-2.077 2.595V13.909h.824c.268 2.741 1.853 5.01 1.253 8.282Z"/>
</svg>
