<svg xmlns="http://www.w3.org/2000/svg" width="77" height="76" fill="none" viewBox="0 0 77 76">
  <path fill="#000" d="M63.17 15.238a1.52 1.52 0 1 0-1.8 2.45C67.826 22.43 71.68 30.023 71.68 38s-3.854 15.57-10.31 20.313a1.52 1.52 0 0 0 1.8 2.45C70.401 55.45 74.72 46.94 74.72 38c0-8.94-4.318-17.45-11.55-22.762Z"/>
  <path fill="#000" d="M53.015 52.553a1.52 1.52 0 0 0 1.8 2.45c5.402-3.969 8.627-10.325 8.627-17.003 0-6.678-3.225-13.034-8.627-17.003a1.52 1.52 0 0 0-1.8 2.45c4.626 3.399 7.387 8.838 7.387 14.553 0 5.715-2.761 11.155-7.387 14.553Zm-8.351-5.757a1.519 1.519 0 0 0 .9 2.745c.313 0 .628-.095.9-.294a14 14 0 0 0 5.7-11.248c0-4.423-2.131-8.627-5.7-11.247a1.519 1.519 0 1 0-1.799 2.45 10.951 10.951 0 0 1 4.46 8.796c0 3.46-1.668 6.748-4.46 8.798ZM15.75 14.625v47.25a.876.876 0 0 0 .256.619l.425.424a11.3 11.3 0 0 0 8.043 3.332h7.052a11.302 11.302 0 0 0 8.043-3.332l.425-.424a.875.875 0 0 0 .256-.619v-47.25a.875.875 0 0 0-.875-.875h-22.75a.875.875 0 0 0-.875.875Zm14 20.125H28V26h1.75v8.75ZM21 43.5h1.75v1.75H21V43.5ZM26.25 26v12.25H24.5V26h1.75Zm-3.5 0v15.75H21V26h1.75Zm1.75 14h1.75v1.75H24.5V40Zm3.5-3.5h1.75v1.75H28V36.5ZM19.25 26v19.25H17.5V26h1.75Zm0 21v1.75H17.5V47h1.75Zm0 3.5v8.75H17.5V50.5h1.75ZM21 47h1.75v12.025a2.627 2.627 0 0 1-1.065.225H21V47Zm3.5-3.5h1.75v10.776l-.02.03-1.73 2.768V43.5ZM28 40h1.75v12.256a4.368 4.368 0 0 0-1.75.445V40Zm3.5 12.25V36.5h1.75v15.75H31.5Zm0-17.5V33h1.75v1.75H31.5Zm0-3.5V26h1.75v5.25H31.5Zm-14-7V15.5h15.75v8.75H17.5Zm6.974 40.25a9.562 9.562 0 0 1-6.806-2.82l-.168-.167V61h4.185a4.351 4.351 0 0 0 3.71-2.056l2.319-3.71A2.61 2.61 0 0 1 29.94 54h3.31v7.513l-.169.168a9.56 9.56 0 0 1-6.805 2.819h-1.802ZM38.5 61.513l-.168.168a9.553 9.553 0 0 1-5.923 2.778c.69-.444 1.33-.96 1.91-1.54l.425-.425a.876.876 0 0 0 .256-.619V15.5h3.5v46.013Z"/>
  <path fill="#000" d="M19.25 18.125v3.5a.875.875 0 0 0 .875.875h10.5a.875.875 0 0 0 .875-.875v-3.5a.875.875 0 0 0-.875-.875h-10.5a.875.875 0 0 0-.875.875Zm10.5.875v1.75H21V19h8.75Z"/>
</svg>
