<svg xmlns="http://www.w3.org/2000/svg" width="39" height="39" fill="none" viewBox="0 0 39 39">
  <path fill="#000" d="M31.606 8.003a.772.772 0 1 0-.915 1.246 12.864 12.864 0 0 1 5.241 10.326c0 4.056-1.959 7.916-5.241 10.327a.773.773 0 0 0 .915 1.245c3.676-2.7 5.872-7.027 5.872-11.572 0-4.545-2.196-8.87-5.872-11.572Z"/>
  <path fill="#000" d="M26.443 26.973a.773.773 0 0 0 .915 1.246 10.77 10.77 0 0 0 4.386-8.644 10.77 10.77 0 0 0-4.386-8.644.773.773 0 0 0-.915 1.246 9.218 9.218 0 0 1 3.756 7.398 9.218 9.218 0 0 1-3.756 7.398Zm-4.245-2.926a.772.772 0 1 0 .915 1.246 7.118 7.118 0 0 0 2.898-5.718 7.119 7.119 0 0 0-2.898-5.718.772.772 0 1 0-.915 1.246 5.567 5.567 0 0 1 2.268 4.472 5.57 5.57 0 0 1-2.268 4.472Z"/>
  <path fill="#231F20" d="M17.404 9.79H4.964a1.75 1.75 0 0 0-1.747 1.747v16.077a1.75 1.75 0 0 0 1.747 1.748h12.44a1.75 1.75 0 0 0 1.748-1.748V11.537a1.75 1.75 0 0 0-1.748-1.748Zm1.049 17.824a1.05 1.05 0 0 1-1.049 1.049H4.964a1.05 1.05 0 0 1-1.048-1.049V11.537a1.05 1.05 0 0 1 1.048-1.049h12.44a1.05 1.05 0 0 1 1.049 1.049v16.077Z"/>
  <path fill="#231F20" d="M11.184 21.318a3.373 3.373 0 0 0-3.37 3.37c.186 4.47 6.555 4.468 6.74 0a3.373 3.373 0 0 0-3.37-3.37Zm0 6.04a2.673 2.673 0 0 1-2.67-2.67c.134-3.538 5.207-3.537 5.34 0a2.673 2.673 0 0 1-2.67 2.67Z"/>
  <path fill="#231F20" d="M11.184 22.558c-2.814.09-2.813 4.17 0 4.259 2.815-.09 2.814-4.17 0-4.26Zm0 3.56a1.431 1.431 0 0 1 0-2.861 1.43 1.43 0 0 1 0 2.861Zm6.424-13.66h-.637v-.989a.35.35 0 0 0-.35-.35h-1.294a.35.35 0 0 0-.35.35v.989h-.401v-.989a.35.35 0 0 0-.35-.35h-1.294a.349.349 0 0 0-.35.35v.989h-.401v-.989a.35.35 0 0 0-.35-.35h-1.294a.349.349 0 0 0-.35.35v.989h-.4v-.989a.35.35 0 0 0-.35-.35H8.143a.349.349 0 0 0-.35.35v.989h-.402v-.989a.35.35 0 0 0-.35-.35H5.748a.349.349 0 0 0-.349.35v.989H4.76a.349.349 0 0 0-.35.35v1.258a.35.35 0 0 0 .35.349h.638v3.17a.997.997 0 0 0 1.993 0v-3.17h.402v4.352a.997.997 0 0 0 1.993 0v-4.352h.402v5.316a.997.997 0 0 0 1.993 0v-5.316h.401v4.352a.997.997 0 0 0 1.994 0v-4.352h.401v3.17a.996.996 0 1 0 1.994 0v-3.17h.637a.35.35 0 0 0 .35-.35v-1.258a.35.35 0 0 0-.35-.35ZM5.11 13.716v-.56h.288v.56H5.11Zm1.582 3.87a.298.298 0 0 1-.595 0v-5.767h.595v5.766Zm.7-3.87v-.56h.401v.56h-.402Zm1.695 5.05a.298.298 0 0 1-.595 0V11.82h.595v6.948Zm.7-5.05v-.56h.4v.56h-.4Zm1.397 6.312a.298.298 0 0 1-.297-.297v-7.912h.595v7.911a.298.298 0 0 1-.298.298Zm.997-6.312v-.56h.401v.56h-.401Zm1.398 5.348a.298.298 0 0 1-.298-.297v-6.948h.596v6.948a.298.298 0 0 1-.298.297Zm.997-5.348v-.56h.401v.56h-.401Zm1.696 3.87a.298.298 0 0 1-.595 0v-5.767h.595v5.766Zm.987-3.87h-.288v-.56h.288v.56Z"/>
</svg>
