<svg xmlns="http://www.w3.org/2000/svg" width="39" height="39" fill="none" viewBox="0 0 39 39">
  <path fill="#000" d="M31.969 7.747a.772.772 0 1 0-.915 1.245 12.864 12.864 0 0 1 5.241 10.326c0 4.056-1.959 7.916-5.241 10.327a.773.773 0 0 0 .915 1.245 14.414 14.414 0 0 0 5.872-11.572c0-4.545-2.195-8.87-5.872-11.571Z"/>
  <path fill="#000" d="M26.807 26.717a.773.773 0 1 0 .915 1.245 10.77 10.77 0 0 0 4.386-8.644 10.77 10.77 0 0 0-4.386-8.644.773.773 0 0 0-.915 1.246 9.218 9.218 0 0 1 3.755 7.398 9.218 9.218 0 0 1-3.755 7.399Zm-4.246-2.927a.772.772 0 1 0 .915 1.246 7.117 7.117 0 0 0 2.898-5.718 7.118 7.118 0 0 0-2.898-5.718.772.772 0 1 0-.914 1.246 5.567 5.567 0 0 1 2.267 4.472c0 1.758-.848 3.43-2.268 4.472ZM18.76 10.104H3.826a1.493 1.493 0 0 0-1.493 1.493v14.934a1.493 1.493 0 0 0 1.493 1.493H18.76a1.493 1.493 0 0 0 1.493-1.493V11.597a1.493 1.493 0 0 0-1.493-1.493Zm-9.333 11.2a.747.747 0 0 0 .746-.746v-8.96h2.24v8.96a.747.747 0 0 0 .747.746h.747v5.227H8.68v-5.227h.747Zm-5.6-9.707h1.866v8.96a.747.747 0 0 0 .747.747h.747v5.227h-3.36V11.597ZM18.76 26.531H15.4v-5.227h.747a.747.747 0 0 0 .746-.746v-8.96h1.867V26.53Z"/>
</svg>
