<?xml version="1.0" ?><!DOCTYPE svg  PUBLIC '-//W3C//DTD SVG 1.1//EN'  'http://www.w3.org/Graphics/SVG/1.1/DTD/svg11.dtd'><svg height="2.33333in" style="shape-rendering:geometricPrecision; text-rendering:geometricPrecision; image-rendering:optimizeQuality; fill-rule:evenodd; clip-rule:evenodd" viewBox="0 0 2.33333 2.33333" width="2.33333in" xml:space="preserve" xmlns="http://www.w3.org/2000/svg" xmlns:xlink="http://www.w3.org/1999/xlink"><defs><style type="text/css">
   <![CDATA[
    .fil1 {fill:none}
    .fil0 {fill:black;fill-rule:nonzero}
   ]]>
  </style></defs><g id="Layer_x0020_1"><path class="fil0" d="M1.48958 0.467142c0,-0.0220906 -0.0179094,-0.04 -0.04,-0.04 -0.0220906,0 -0.04,0.0179094 -0.04,0.04l0 0.522457c0,0.0667598 -0.0273425,0.127484 -0.0713858,0.171524 -0.0440394,0.0440433 -0.104764,0.0713858 -0.171524,0.0713858l-7.87402e-006 0c-0.0667598,0 -0.127484,-0.0273425 -0.171524,-0.0713858 -0.0440433,-0.0440394 -0.0713858,-0.104764 -0.0713858,-0.171524l0 -0.522457c0,-0.0220906 -0.0179094,-0.04 -0.04,-0.04 -0.0220906,0 -0.04,0.0179094 -0.04,0.04l0 0.522457c0,0.0888346 0.0363189,0.169579 0.0948268,0.228083 0.0585039,0.0585079 0.139248,0.0948268 0.228083,0.0948268l7.87402e-006 0c0.0888346,0 0.169579,-0.0363189 0.228083,-0.0948268 0.0585079,-0.0585039 0.0948268,-0.139248 0.0948268,-0.228083l0 -0.522457z"/><path class="fil0" d="M1.19404 1.27223c0,-0.0220906 -0.0179094,-0.04 -0.04,-0.04 -0.0220906,0 -0.04,0.0179094 -0.04,0.04l0 0.593957c0,0.0220906 0.0179094,0.04 0.04,0.04 0.0220906,0 0.04,-0.0179094 0.04,-0.04l0 -0.593957z"/><path class="fil0" d="M0.886118 1.82619c-0.0220906,0 -0.04,0.0179094 -0.04,0.04 0,0.0220906 0.0179094,0.04 0.04,0.04l0.535843 0c0.0220906,0 0.04,-0.0179094 0.04,-0.04 0,-0.0220906 -0.0179094,-0.04 -0.04,-0.04l-0.535843 0z"/><path class="fil0" d="M1.71013 0.592496c-0.0179488,-0.0127717 -0.0428543,-0.0085748 -0.055626,0.00937402 -0.0127717,0.0179488 -0.0085748,0.0428543 0.00937402,0.055626 0.0337992,0.0240354 0.061626,0.0559528 0.0807795,0.0930512 0.018378,0.0355945 0.0287638,0.0761496 0.0287638,0.119276 0,0.0431299 -0.0103858,0.083685 -0.0287638,0.11928 -0.0191535,0.0370984 -0.0469803,0.0690157 -0.0807795,0.0930512 -0.0179488,0.0127717 -0.0221457,0.0376772 -0.00937402,0.055626 0.0127717,0.0179488 0.0376772,0.0221457 0.055626,0.00937402 0.0441299,-0.0313819 0.0804528,-0.0730472 0.105465,-0.121492 0.0241732,-0.046815 0.0378268,-0.0998189 0.0378268,-0.155839 0,-0.0560197 -0.0136535,-0.10902 -0.0378268,-0.155835 -0.0250118,-0.0484449 -0.0613346,-0.0901102 -0.105465,-0.121492z"/><path class="fil0" d="M1.81325 0.46961c-0.0179488,-0.0127717 -0.0428543,-0.0085748 -0.055626,0.00937402 -0.0127717,0.0179488 -0.0085748,0.0428543 0.00937402,0.055626 0.0533622,0.0379488 0.0972835,0.0883268 0.127524,0.146898 0.029063,0.0562795 0.0454764,0.120303 0.0454764,0.188315 0,0.0680118 -0.0164134,0.132039 -0.0454724,0.188319 -0.030248,0.0585748 -0.0741654,0.108949 -0.127528,0.146898 -0.0179488,0.0127717 -0.0221457,0.0376772 -0.00937402,0.055626 0.0127717,0.0179488 0.0376772,0.0221457 0.055626,0.00937402 0.063685,-0.0452874 0.116106,-0.105421 0.152213,-0.175339 0.0348504,-0.0675 0.0545354,-0.143972 0.0545354,-0.224878 0,-0.0809055 -0.019685,-0.157382 -0.0545394,-0.224874 -0.0360984,-0.0699134 -0.0885197,-0.130047 -0.152209,-0.175339z"/><path class="fil0" d="M0.669449 0.657496c0.0179488,-0.0127717 0.0221457,-0.0376772 0.00937402,-0.055626 -0.0127717,-0.0179488 -0.0376772,-0.0221457 -0.055626,-0.00937402 -0.0441299,0.0313819 -0.0804528,0.0730472 -0.105465,0.121492 -0.0241732,0.046815 -0.0378268,0.099815 -0.0378268,0.155835 0,0.0560197 0.0136535,0.109024 0.0378268,0.155839 0.0250118,0.0484449 0.0613346,0.0901102 0.105465,0.121492 0.0179488,0.0127717 0.0428543,0.0085748 0.055626,-0.00937402 0.0127717,-0.0179488 0.0085748,-0.0428543 -0.00937402,-0.055626 -0.0337992,-0.0240354 -0.061626,-0.0559528 -0.0807795,-0.0930512 -0.018378,-0.0355945 -0.0287638,-0.0761496 -0.0287638,-0.11928 0,-0.043126 0.0103858,-0.0836811 0.0287638,-0.119276 0.0191535,-0.0370984 0.0469803,-0.0690157 0.0807795,-0.0930512z"/><path class="fil0" d="M0.566331 0.53461c0.0179488,-0.0127717 0.0221457,-0.0376772 0.00937402,-0.055626 -0.0127717,-0.0179488 -0.0376772,-0.0221457 -0.055626,-0.00937402 -0.063689,0.0452913 -0.11611,0.105425 -0.152209,0.175339 -0.0348543,0.0674921 -0.0545394,0.143969 -0.0545394,0.224874 0,0.0809055 0.019685,0.157378 0.0545354,0.224878 0.0361063,0.0699173 0.0885276,0.130051 0.152213,0.175339 0.0179488,0.0127717 0.0428543,0.0085748 0.055626,-0.00937402 0.0127717,-0.0179488 0.0085748,-0.0428543 -0.00937402,-0.055626 -0.0533622,-0.0379488 -0.0972795,-0.0883228 -0.127528,-0.146898 -0.0290591,-0.0562795 -0.0454724,-0.120307 -0.0454724,-0.188319 0,-0.0680118 0.0164134,-0.132035 0.0454764,-0.188315 0.0302402,-0.0585709 0.0741614,-0.108949 0.127524,-0.146898z"/></g><rect class="fil1" height="2.33333" width="2.33333"/></svg>